<?xml version="1.0" encoding="utf-8"?>
<!-- Generator: Adobe Illustrator 23.0.4, SVG Export Plug-In . SVG Version: 6.00 Build 0)  -->
<svg version="1.1" id="logo" xmlns="http://www.w3.org/2000/svg" xmlns:xlink="http://www.w3.org/1999/xlink" x="0px" y="0px"
	 viewBox="0 0 249.6 38.1" style="enable-background:new 0 0 249.6 38.1;" xml:space="preserve">
<style type="text/css">
	.st0{fill:#58AAAF;}
	.st1{fill:#65C1CD;}
	.st2{fill:#FBC338;}
	.st3{fill:#F3D633;}
	.st4{fill:#EAE9E7;}
	.st5{fill:#ACCAE7;}
	.st6{fill:#C6D442;}
</style>
<g>
	<g>
		<path class="st0" d="M17.8,12.4c1.4-2.2,3.8-3.5,6.2-3.3c1.7,0.2,2.8,1.1,3.3,1.6c-0.2,0.4-1.5,2.4-4.2,2.9
			C20.3,14.3,18.1,12.7,17.8,12.4z"/>
		<path class="st1" d="M17.9,11.8c1.3-2.1,3.5-3.3,5.7-3c1.6,0.2,2.6,1,3.1,1.5c-0.2,0.3-1.4,2.2-3.9,2.7
			C20.1,13.6,18.1,12.1,17.9,11.8z"/>
		<path class="st1" d="M18.2,11.7c-0.1,0-0.1-0.1-0.1-0.2c0.1-1,0-2.1-0.3-3c-0.2-0.5-0.4-1.1-0.7-1.6c-0.1-0.1,0-0.2,0.1-0.3
			c0.1-0.1,0.2,0,0.3,0.1c0.3,0.5,0.5,1.1,0.7,1.6c0.3,1,0.4,2.1,0.3,3.2C18.5,11.7,18.4,11.8,18.2,11.7
			C18.2,11.8,18.2,11.8,18.2,11.7z"/>
		<path class="st2" d="M3.4,16.7c0.3-0.4,3.6-5.4,8.9-5.4c1.4,0,2.5,0.3,3.3,0.6c0.6-1.1,2-1.5,2.9-0.8c0.8,0.5,1,1.7,0.5,2.7
			c1.6,1.8,2.1,3.5,2.2,4.4c1,4.9-2.8,8.9-4.2,10.4c-1,1.1-2.2,2.3-4.2,3c-2.3,0.8-4.4,0.4-5.3,0.1c-0.1,0.2-0.5,0.6-1.1,0.8
			c-0.8,0.2-1.7-0.1-2.1-0.9c-0.4-0.8,0-1.6,0-1.7c-0.6-0.6-1.4-1.6-2-3.1C0.2,22,3.1,17.2,3.4,16.7z"/>
		<path class="st3" d="M2.9,16.7c0.3-0.4,3.4-5.2,8.6-5.2c1.3,0,2.4,0.3,3.1,0.6c0.6-1.1,1.9-1.4,2.8-0.8c0.7,0.5,1,1.6,0.5,2.6
			c1.5,1.7,2,3.3,2.2,4.2c0.9,4.7-2.7,8.6-4.1,10.1c-1,1.1-2.1,2.3-4.1,2.9c-2.2,0.8-4.2,0.4-5.1,0.1c-0.1,0.2-0.4,0.6-1.1,0.8
			c-0.7,0.2-1.7-0.1-2.1-0.8c-0.4-0.8,0-1.6,0-1.7c-0.6-0.6-1.4-1.6-1.9-3C-0.2,21.7,2.6,17.1,2.9,16.7z"/>
		<path class="st4" d="M8.3,14.7c0.1-0.1,0.7-0.4,1.3-0.3c0.6,0.1,1.4,0.6,1.5,1.4c0.2,0.9-0.5,1.6-1.2,1.9
			c-0.9,0.4-2.2,0.1-2.5-0.8C7.1,16.1,7.7,15.2,8.3,14.7z"/>
		<path class="st4" d="M5.9,18c0.1,0,0.4-0.2,0.7-0.1c0.3,0.1,0.6,0.4,0.5,0.8c-0.1,0.4-0.5,0.6-0.8,0.6c-0.4,0-0.8-0.3-0.8-0.6
			C5.5,18.3,5.8,18,5.9,18z"/>
		<path class="st4" d="M9.2,29.5c0,0,0.3-0.2,0.5-0.1c0.2,0.1,0.4,0.3,0.4,0.5c0,0.3-0.4,0.4-0.6,0.4C9.3,30.4,9,30.2,9,30
			C9,29.7,9.2,29.5,9.2,29.5z"/>
		<path class="st4" d="M15,25.2c2.1-2,2.8-3.6,3-3.5c0.2,0.1-0.7,2.7-2.6,4.8c0,0-1.9,2-4.7,2.6c-0.1,0-0.3,0-0.3,0
			C10.2,28.8,12.7,27.5,15,25.2z"/>
	</g>
	<g id="logo_1_">
		<g>
			<g>
				<g>
					<path class="st5" d="M44,30.9c-0.3,0.2-0.7,0.4-1.1,0.6c-0.4,0.2-0.9,0.4-1.5,0.6c-0.6,0.2-1.2,0.3-1.9,0.4
						c-0.7,0.1-1.5,0.2-2.4,0.2c-1.4,0-2.7-0.2-3.9-0.6c-1.2-0.4-2.3-1-3.2-1.7c-0.9-0.8-1.6-1.7-2.2-2.8c-0.5-1.1-0.8-2.4-0.8-3.9
						c0-1.5,0.3-2.8,0.8-3.9c0.5-1.1,1.2-2.1,2.2-2.9c0.9-0.8,2-1.4,3.2-1.8c1.2-0.4,2.6-0.6,4-0.6c1.2,0,2.2,0.1,3.1,0.3
						c0.9,0.2,1.5,0.4,2.1,0.7c0.5,0.3,0.9,0.6,1.2,0.9c0.2,0.3,0.4,0.7,0.4,1c0,0.5-0.2,0.9-0.5,1.3c-0.3,0.4-0.6,0.7-0.9,0.9
						c-0.4-0.4-1.1-0.8-1.9-1.1c-0.8-0.4-1.9-0.5-3.1-0.5c-0.8,0-1.6,0.1-2.4,0.3c-0.7,0.2-1.4,0.6-1.9,1.1c-0.5,0.5-1,1.1-1.3,1.8
						c-0.3,0.7-0.5,1.5-0.5,2.5c0,1,0.2,1.9,0.5,2.6c0.3,0.7,0.8,1.3,1.3,1.8c0.6,0.5,1.2,0.8,2,1c0.7,0.2,1.5,0.3,2.4,0.3
						c1.2,0,2.2-0.2,3-0.5c0.8-0.3,1.3-0.5,1.5-0.7L44,30.9z"/>
				</g>
			</g>
			<g>
				<g>
					<path class="st5" d="M46.6,8.6c0-0.6,0.2-1.1,0.6-1.4c0.4-0.3,1-0.4,1.7-0.4c0.4,0,0.9,0.1,1.2,0.2c0.4,0.1,0.6,0.2,0.7,0.2v25
						h-4.2V8.6z"/>
				</g>
			</g>
			<g>
				<g>
					<path class="st5" d="M71.9,30.9c-0.2,0.1-0.5,0.3-0.9,0.5c-0.4,0.2-0.9,0.4-1.6,0.6c-0.6,0.2-1.4,0.3-2.2,0.5
						c-0.8,0.1-1.7,0.2-2.7,0.2c-1.4,0-2.7-0.2-3.9-0.6c-1.2-0.4-2.2-1-3.2-1.7c-0.9-0.8-1.6-1.7-2.1-2.8s-0.8-2.4-0.8-3.8
						c0-1.4,0.3-2.6,0.8-3.8c0.5-1.1,1.2-2.1,2.1-2.9s2-1.4,3.2-1.9c1.2-0.4,2.6-0.7,4-0.7c1.3,0,2.4,0.2,3.4,0.5
						c1,0.3,1.8,0.7,2.5,1.2c0.7,0.5,1.2,1.1,1.5,1.8c0.3,0.7,0.5,1.4,0.5,2.2c0,0.8-0.2,1.5-0.5,2.2c-0.3,0.7-0.9,1.2-1.7,1.7
						c-0.8,0.5-1.9,0.8-3.3,1.1c-1.4,0.3-3.1,0.4-5.3,0.4c-0.5,0-1,0-1.4,0c-0.4,0-0.9,0-1.4-0.1c0.2,1.2,0.8,2.1,1.8,2.8
						c1,0.7,2.5,1.1,4.4,1.1c0.6,0,1.2,0,1.8-0.1c0.5-0.1,1-0.2,1.5-0.3c0.4-0.1,0.8-0.3,1.1-0.4c0.3-0.1,0.5-0.2,0.7-0.3L71.9,30.9
						z M58.9,22.7c0.6,0,1.1,0,1.6,0s1,0,1.6,0c1.4,0,2.5-0.1,3.3-0.2c0.8-0.2,1.5-0.4,2-0.6c0.5-0.3,0.8-0.5,0.9-0.9
						c0.1-0.3,0.2-0.7,0.2-1c0-0.9-0.4-1.5-1.1-2c-0.8-0.4-1.7-0.7-2.8-0.7c-0.9,0-1.7,0.2-2.4,0.4c-0.7,0.3-1.3,0.7-1.7,1.2
						c-0.5,0.5-0.8,1.1-1.1,1.7C59.1,21.4,58.9,22.1,58.9,22.7z"/>
				</g>
			</g>
			<g>
				<g>
					<path class="st5" d="M92.6,32.1c-0.2,0-0.6,0.1-1.2,0.2c-0.5,0.1-1.2,0.1-1.9,0.2c-0.7,0.1-1.5,0.1-2.4,0.2
						c-0.9,0-1.8,0.1-2.8,0.1c-1.9,0-3.5-0.2-4.7-0.5c-1.2-0.3-2.2-0.7-2.9-1.2c-0.7-0.5-1.2-1.1-1.4-1.8s-0.4-1.4-0.4-2.1
						c0-0.9,0.2-1.8,0.5-2.5c0.3-0.7,0.8-1.3,1.5-1.8c0.7-0.5,1.6-0.8,2.8-1.1c1.1-0.2,2.5-0.4,4.2-0.4c0.9,0,1.8,0,2.7,0.1
						c0.8,0.1,1.5,0.1,1.9,0.2c0-0.8-0.1-1.5-0.4-2c-0.3-0.5-0.7-0.9-1.2-1.2c-0.5-0.3-1.1-0.5-1.8-0.6c-0.7-0.1-1.5-0.2-2.3-0.2
						c-1.4,0-2.5,0.1-3.4,0.4c-0.9,0.3-1.4,0.6-1.7,0.8c-0.1-0.1-0.4-0.3-0.6-0.7s-0.4-0.7-0.4-1.2c0-0.3,0.1-0.6,0.3-0.9
						c0.2-0.3,0.5-0.6,1-0.8c0.5-0.2,1.1-0.4,1.9-0.6c0.8-0.1,1.8-0.2,3-0.2c1.5,0,2.8,0.1,4,0.4c1.2,0.3,2.2,0.7,3.1,1.3
						c0.9,0.6,1.5,1.3,2,2.3c0.5,0.9,0.7,2.1,0.7,3.4V32.1z M88.4,24.4c-0.2,0-0.7-0.1-1.4-0.2c-0.7-0.1-1.7-0.1-3.1-0.1
						c-1.7,0-2.9,0.2-3.7,0.7c-0.8,0.5-1.1,1.2-1.1,2.2c0,0.4,0.1,0.8,0.2,1.1c0.2,0.3,0.4,0.6,0.8,0.9c0.4,0.2,0.9,0.4,1.6,0.6
						c0.7,0.1,1.5,0.2,2.5,0.2c1.1,0,2,0,2.7-0.1c0.7-0.1,1.1-0.1,1.3-0.2V24.4z"/>
				</g>
			</g>
			<g>
				<g>
					<path class="st5" d="M96.9,21.7c0-1.1,0.2-2.2,0.7-3.1c0.5-0.9,1.1-1.7,1.9-2.3c0.8-0.6,1.8-1.1,2.9-1.4
						c1.1-0.3,2.3-0.5,3.6-0.5c1.3,0,2.5,0.2,3.6,0.5s2.1,0.8,2.9,1.4c0.8,0.6,1.4,1.4,1.9,2.3c0.4,0.9,0.7,1.9,0.7,3.1v10.4h-4.2
						v-9.4c0-1.6-0.4-2.8-1.2-3.6c-0.8-0.8-2-1.2-3.6-1.2c-1.6,0-2.8,0.4-3.6,1.2c-0.8,0.8-1.2,2-1.2,3.6v9.4h-4.2V21.7z"/>
				</g>
			</g>
			<path class="st6" d="M128.1,8.6c0-0.6,0.2-1.1,0.6-1.4c0.4-0.3,1-0.4,1.7-0.4c0.4,0,0.9,0.1,1.2,0.2c0.4,0.1,0.6,0.2,0.7,0.2V17
				c0.6-0.7,1.5-1.4,2.6-1.9c1.1-0.5,2.3-0.8,3.7-0.8c1.4,0,2.6,0.2,3.8,0.7c1.1,0.4,2.2,1.1,3,1.9c0.9,0.8,1.5,1.8,2,2.9
				c0.5,1.1,0.7,2.3,0.7,3.7c0,1.3-0.2,2.5-0.7,3.7c-0.5,1.1-1.2,2.1-2.1,2.9c-0.9,0.8-1.9,1.4-3.2,1.9c-1.2,0.5-2.6,0.7-4,0.7
				c-1.5,0-2.8-0.2-4-0.6c-1.2-0.4-2.3-1-3.2-1.9c-0.9-0.8-1.6-1.9-2.1-3.1c-0.5-1.2-0.7-2.7-0.7-4.4V8.6z M138.1,29.1
				c0.8,0,1.6-0.1,2.3-0.4c0.7-0.3,1.3-0.7,1.8-1.2c0.5-0.5,0.9-1.1,1.2-1.8c0.3-0.7,0.4-1.4,0.4-2.2c0-0.8-0.1-1.6-0.4-2.2
				c-0.3-0.7-0.7-1.3-1.2-1.8c-0.5-0.5-1.1-0.9-1.8-1.2c-0.7-0.3-1.5-0.4-2.3-0.4c-0.9,0-1.6,0.1-2.4,0.4c-0.7,0.3-1.3,0.7-1.8,1.2
				c-0.5,0.5-0.9,1.1-1.2,1.8s-0.4,1.4-0.4,2.2c0,0.8,0.1,1.6,0.4,2.3c0.3,0.7,0.7,1.3,1.2,1.8c0.5,0.5,1.1,0.9,1.8,1.1
				C136.5,29,137.2,29.1,138.1,29.1z"/>
			<path class="st6" d="M151.8,16.7c0-0.6,0.2-1.1,0.6-1.4c0.4-0.3,1-0.4,1.7-0.4c0.4,0,0.9,0.1,1.2,0.2c0.4,0.1,0.6,0.2,0.7,0.2
				v9.1c0,1.6,0.4,2.8,1.2,3.6c0.8,0.8,2,1.2,3.6,1.2s2.8-0.4,3.6-1.2c0.8-0.8,1.2-2,1.2-3.6v-7.6c0-0.6,0.2-1.1,0.6-1.4
				c0.4-0.3,0.9-0.4,1.6-0.4c0.5,0,0.9,0.1,1.3,0.2c0.4,0.1,0.6,0.2,0.7,0.2v9.9c0,1.2-0.2,2.2-0.6,3.2c-0.4,0.9-1.1,1.7-1.9,2.4
				c-0.8,0.6-1.8,1.1-2.9,1.5c-1.1,0.3-2.3,0.5-3.7,0.5s-2.6-0.2-3.7-0.5c-1.1-0.3-2.1-0.8-2.9-1.5c-0.8-0.6-1.4-1.4-1.9-2.4
				c-0.4-0.9-0.7-2-0.7-3.2V16.7z"/>
			<path class="st6" d="M174.2,21c0-2.1,0.7-3.8,2.1-4.9c1.4-1.2,3.3-1.7,5.8-1.7c1.6,0,2.8,0.2,3.8,0.6c1,0.4,1.5,1,1.5,1.8
				c0,0.4-0.1,0.8-0.4,1.1c-0.2,0.4-0.4,0.6-0.6,0.7c-0.4-0.2-0.9-0.4-1.6-0.5c-0.6-0.2-1.3-0.2-2.1-0.2c-2.9,0-4.3,1.4-4.3,4.3v10
				h-4.2V21z"/>
			<path class="st6" d="M205.8,30.9c-0.2,0.1-0.5,0.3-0.9,0.5c-0.4,0.2-0.9,0.4-1.6,0.6c-0.6,0.2-1.4,0.3-2.2,0.5
				c-0.8,0.1-1.7,0.2-2.7,0.2c-1.4,0-2.7-0.2-3.9-0.6c-1.2-0.4-2.2-1-3.2-1.7c-0.9-0.8-1.6-1.7-2.1-2.8s-0.8-2.4-0.8-3.8
				c0-1.4,0.3-2.6,0.8-3.8c0.5-1.1,1.2-2.1,2.1-2.9c0.9-0.8,2-1.4,3.2-1.9c1.2-0.4,2.6-0.7,4-0.7c1.3,0,2.4,0.2,3.4,0.5
				c1,0.3,1.8,0.7,2.5,1.2c0.7,0.5,1.2,1.1,1.5,1.8c0.3,0.7,0.5,1.4,0.5,2.2c0,0.8-0.2,1.5-0.5,2.2c-0.3,0.7-0.9,1.2-1.7,1.7
				c-0.8,0.5-1.9,0.8-3.3,1.1c-1.4,0.3-3.1,0.4-5.3,0.4c-0.5,0-1,0-1.4,0c-0.4,0-0.9,0-1.4-0.1c0.2,1.2,0.8,2.1,1.8,2.8
				c1,0.7,2.5,1.1,4.4,1.1c0.6,0,1.2,0,1.8-0.1c0.5-0.1,1-0.2,1.5-0.3c0.4-0.1,0.8-0.3,1.1-0.4c0.3-0.1,0.5-0.2,0.7-0.3L205.8,30.9z
				 M192.8,22.7c0.6,0,1.1,0,1.6,0s1,0,1.6,0c1.4,0,2.5-0.1,3.3-0.2c0.8-0.2,1.5-0.4,2-0.6c0.5-0.3,0.8-0.5,0.9-0.9
				c0.1-0.3,0.2-0.7,0.2-1c0-0.9-0.4-1.5-1.1-2c-0.8-0.4-1.7-0.7-2.8-0.7c-0.9,0-1.7,0.2-2.4,0.4c-0.7,0.3-1.3,0.7-1.7,1.2
				c-0.5,0.5-0.8,1.1-1.1,1.7C193,21.4,192.8,22.1,192.8,22.7z"/>
			<path class="st6" d="M226.5,32.1c-0.2,0-0.6,0.1-1.2,0.2c-0.5,0.1-1.2,0.1-1.9,0.2c-0.7,0.1-1.5,0.1-2.4,0.2
				c-0.9,0-1.8,0.1-2.8,0.1c-1.9,0-3.5-0.2-4.7-0.5c-1.2-0.3-2.2-0.7-2.9-1.2c-0.7-0.5-1.2-1.1-1.4-1.8s-0.4-1.4-0.4-2.1
				c0-0.9,0.2-1.8,0.5-2.5c0.3-0.7,0.8-1.3,1.5-1.8c0.7-0.5,1.6-0.8,2.8-1.1c1.1-0.2,2.5-0.4,4.2-0.4c0.9,0,1.8,0,2.7,0.1
				c0.8,0.1,1.5,0.1,1.9,0.2c0-0.8-0.1-1.5-0.4-2c-0.3-0.5-0.7-0.9-1.2-1.2c-0.5-0.3-1.1-0.5-1.8-0.6c-0.7-0.1-1.5-0.2-2.3-0.2
				c-1.4,0-2.5,0.1-3.4,0.4c-0.9,0.3-1.4,0.6-1.7,0.8c-0.1-0.1-0.4-0.3-0.6-0.7s-0.4-0.7-0.4-1.2c0-0.3,0.1-0.6,0.3-0.9
				c0.2-0.3,0.5-0.6,1-0.8c0.5-0.2,1.1-0.4,1.9-0.6c0.8-0.1,1.8-0.2,3-0.2c1.5,0,2.8,0.1,4,0.4c1.2,0.3,2.2,0.7,3.1,1.3
				c0.9,0.6,1.5,1.3,2,2.3c0.5,0.9,0.7,2.1,0.7,3.4V32.1z M222.3,24.4c-0.2,0-0.7-0.1-1.4-0.2c-0.7-0.1-1.7-0.1-3.1-0.1
				c-1.7,0-2.9,0.2-3.7,0.7c-0.8,0.5-1.1,1.2-1.1,2.2c0,0.4,0.1,0.8,0.2,1.1c0.2,0.3,0.4,0.6,0.8,0.9c0.4,0.2,0.9,0.4,1.6,0.6
				c0.7,0.1,1.5,0.2,2.5,0.2c1.1,0,2,0,2.7-0.1c0.7-0.1,1.1-0.1,1.3-0.2V24.4z"/>
			<path class="st6" d="M230.8,16.7c0-0.6,0.2-1.1,0.6-1.4c0.4-0.3,1-0.4,1.7-0.4c0.4,0,0.9,0.1,1.2,0.2c0.4,0.1,0.6,0.2,0.7,0.2
				v9.1c0,1.6,0.4,2.8,1.2,3.6c0.8,0.8,2,1.2,3.6,1.2s2.8-0.4,3.6-1.2c0.8-0.8,1.2-2,1.2-3.6v-7.6c0-0.6,0.2-1.1,0.6-1.4
				c0.4-0.3,0.9-0.4,1.6-0.4c0.5,0,0.9,0.1,1.3,0.2c0.4,0.1,0.6,0.2,0.7,0.2v9.9c0,1.2-0.2,2.2-0.6,3.2c-0.4,0.9-1.1,1.7-1.9,2.4
				c-0.8,0.6-1.8,1.1-2.9,1.5c-1.1,0.3-2.3,0.5-3.7,0.5s-2.6-0.2-3.7-0.5c-1.1-0.3-2.1-0.8-2.9-1.5c-0.8-0.6-1.4-1.4-1.9-2.4
				c-0.4-0.9-0.7-2-0.7-3.2V16.7z"/>
		</g>
	</g>
</g>
</svg>
