<?xml version="1.0" encoding="utf-8"?>
<!-- Generator: Adobe Illustrator 27.3.1, SVG Export Plug-In . SVG Version: 6.00 Build 0)  -->
<svg version="1.1" id="Слой_1" xmlns="http://www.w3.org/2000/svg" xmlns:xlink="http://www.w3.org/1999/xlink" x="0px" y="0px"
	 viewBox="0 0 181.84 153.7" style="enable-background:new 0 0 181.84 153.7;" xml:space="preserve">
<style type="text/css">
	.st0{fill:none;stroke:#4D4D4D;stroke-width:6;stroke-miterlimit:10;}
	.st1{fill:#ECCF2F;}
	.st2{fill:#FDE834;}
	.st3{fill:#A6AAAE;}
	.st4{fill:#333333;}
	.st5{fill:#1A1A1A;}
</style>
<g>
	<path class="st0" d="M78.69,122.46c6.52,0.75,20.98,1.69,25.79-5.89c4.68-7.37-2.91-18.73-14.15-39.79
		c-6.34-11.89-15.35-29.66-25.11-52.45c-0.89-6.3,2.25-12.32,7.43-14.75c6.35-2.98,14.77-0.09,18.35,7.13
		c20.71,40.51,41.43,81.02,62.14,121.52"/>
	<path class="st1" d="M59.96,147.81H15.47c-8.43,0-15.33-6.9-15.33-15.33v-11.78H75.3v11.78C75.3,140.91,68.4,147.81,59.96,147.81z"
		/>
	<path class="st2" d="M49.17,93.12h-22.9c-14.37,0-26.13,11.76-26.13,26.13v0c0,0.55,0.44,0.99,0.99,0.99h73.18
		c0.55,0,0.99-0.44,0.99-0.99v0C75.3,104.88,63.54,93.12,49.17,93.12z"/>
	<circle class="st3" cx="27.55" cy="134.25" r="19.45"/>
	<circle class="st1" cx="27.4" cy="134.99" r="12.23"/>
	<path class="st4" d="M31.68,96.82h-5.6c-1.95,0-3.54-1.59-3.54-3.54v0c0-1.95,1.59-3.54,3.54-3.54h5.6c1.95,0,3.54,1.59,3.54,3.54
		v0C35.21,95.23,33.62,96.82,31.68,96.82z"/>
	<path class="st4" d="M83.06,129.54h-8.74c-2.86,0-5.21-2.34-5.21-5.21v-3.73c0-2.86,2.34-5.21,5.21-5.21h8.74
		c2.86,0,5.21,2.34,5.21,5.21v3.73C88.26,127.19,85.92,129.54,83.06,129.54z"/>
	<path class="st5" d="M181.84,151.35h-57.03v-6.45c0-2.29,1.87-4.16,4.16-4.16h50.16c1.49,0,2.72,1.22,2.72,2.72V151.35z"/>
	<path class="st5" d="M179.91,141.32h-53.55v-3.04c0-1.74,1.41-3.15,3.15-3.15h46.55c2.13,0,3.85,1.72,3.85,3.85V141.32z"/>
</g>
</svg>
