<?xml version="1.0" encoding="utf-8"?>
<!-- Generator: Adobe Illustrator 27.3.1, SVG Export Plug-In . SVG Version: 6.00 Build 0)  -->
<svg version="1.1" id="Слой_1" xmlns="http://www.w3.org/2000/svg" xmlns:xlink="http://www.w3.org/1999/xlink" x="0px" y="0px"
	 viewBox="0 0 96.29 153.7" style="enable-background:new 0 0 96.29 153.7;" xml:space="preserve">
<style type="text/css">
	.st0{fill:#B3BCBE;}
	.st1{fill:#262626;}
	.st2{fill:#717A7C;}
	.st3{fill:#B2B2B2;}
	.st4{fill:#C3DDFC;}
	.st5{fill:#FB6265;}
	.st6{fill:#E5E5E5;}
	.st7{fill:#3ACCE4;}
	.st8{fill:#FFFFFF;}
	.st9{fill:#F6B83A;}
	.st10{fill:#FDCF4F;}
	.st11{fill:#383838;}
	.st12{fill:#E6922E;}
	.st13{fill:#DA8F2C;}
	.st14{fill:#12868F;}
	.st15{fill:#F9A637;}
	.st16{fill:#E5A231;}
	.st17{fill:#F1A92A;}
	.st18{fill:#DF9222;}
	.st19{fill:#BE7220;}
	.st20{fill:#108082;}
	.st21{fill:#BECF5E;}
	.st22{fill:#DCE76C;}
</style>
<g>
	<circle class="st0" cx="67.55" cy="149.52" r="4.18"/>
	<circle class="st1" cx="67.11" cy="149.52" r="2.42"/>
	<circle class="st0" cx="89.12" cy="149.52" r="4.18"/>
	<circle class="st1" cx="88.68" cy="149.52" r="2.42"/>
	<circle class="st0" cx="8.58" cy="144.68" r="8.58"/>
	<circle class="st0" cx="42.47" cy="144.68" r="8.58"/>
	<path class="st2" d="M63.37,144.46c1.61,0,3.23,0,4.84,0c0,1.76,0,3.52,0,5.28c-0.22,0.53-0.74,0.88-1.32,0.88
		c-0.58,0-1.1-0.35-1.32-0.88C64.84,147.98,64.11,146.22,63.37,144.46z"/>
	<path class="st2" d="M84.94,144.46c1.61,0,3.23,0,4.84,0c0,1.76,0,3.52,0,5.28c-0.22,0.53-0.74,0.88-1.32,0.88s-1.1-0.35-1.32-0.88
		C86.4,147.98,85.67,146.22,84.94,144.46z"/>
	<circle class="st1" cx="88.68" cy="149.08" r="0.66"/>
	<circle class="st1" cx="67.11" cy="149.08" r="0.66"/>
	<circle class="st1" cx="42.47" cy="144.68" r="5.5"/>
	<ellipse class="st1" cx="8.36" cy="144.68" rx="5.28" ry="5.5"/>
	<circle class="st1" cx="65.35" cy="140.28" r="2.86"/>
	<circle class="st1" cx="86.04" cy="140.28" r="2.86"/>
	
		<rect x="19.1" y="57.68" transform="matrix(0.0805 -0.9968 0.9968 0.0805 -10.808 105.7692)" class="st3" width="65.64" height="2.13"/>
	<g>
		<ellipse class="st4" cx="60.04" cy="27.31" rx="1.22" ry="4.18"/>
		<ellipse class="st4" cx="57.91" cy="26.45" rx="1.22" ry="4.18"/>
		<ellipse class="st4" cx="55.79" cy="26.03" rx="1.22" ry="4.18"/>
		<ellipse class="st4" cx="53.66" cy="24.33" rx="1.22" ry="4.18"/>
		<ellipse class="st4" cx="51.53" cy="23.47" rx="1.22" ry="4.18"/>
		<ellipse class="st4" cx="48.97" cy="22.2" rx="1.22" ry="4.18"/>
		<ellipse class="st4" cx="62.17" cy="27.31" rx="1.22" ry="4.18"/>
		<ellipse class="st4" cx="64.3" cy="29.01" rx="1.22" ry="4.18"/>
		<ellipse class="st4" cx="66.84" cy="28.66" rx="1.22" ry="4.18"/>
		
			<ellipse transform="matrix(0.7751 -0.6318 0.6318 0.7751 0.2429 32.6228)" class="st4" cx="45.95" cy="15.97" rx="4.18" ry="1.22"/>
		
			<ellipse transform="matrix(0.4622 -0.8868 0.8868 0.4622 9.6837 50.874)" class="st4" cx="46.78" cy="17.45" rx="4.18" ry="1.22"/>
		
			<ellipse transform="matrix(0.1195 -0.9928 0.9928 0.1195 23.0393 64.3647)" class="st4" cx="47.81" cy="19.19" rx="4.21" ry="1.23"/>
		<ellipse transform="matrix(0.97 -0.2431 0.2431 0.97 -2.0504 11.5886)" class="st4" cx="45.93" cy="14.1" rx="4.18" ry="1.22"/>
		
			<ellipse transform="matrix(0.1912 -0.9815 0.9815 0.1912 25.8777 55.0686)" class="st4" cx="46.35" cy="11.83" rx="1.22" ry="4.18"/>
		
			<ellipse transform="matrix(0.9159 -0.4015 0.4015 0.9159 -5.3757 30.1357)" class="st4" cx="69.22" cy="27.9" rx="1.22" ry="4.18"/>
		
			<ellipse transform="matrix(0.6718 -0.7408 0.7408 0.6718 3.5686 61.343)" class="st4" cx="71.01" cy="26.64" rx="1.22" ry="4.18"/>
		
			<ellipse transform="matrix(0.4856 -0.8742 0.8742 0.4856 12.0572 60.9572)" class="st4" cx="57.83" cy="20.23" rx="5.43" ry="13.08"/>
		<ellipse transform="matrix(0.1001 -0.995 0.995 0.1001 35.2373 70.436)" class="st4" cx="56.56" cy="15.74" rx="4.18" ry="1.22"/>
		<ellipse transform="matrix(0.1001 -0.995 0.995 0.1001 36.0116 73.4128)" class="st4" cx="58.59" cy="16.8" rx="4.18" ry="1.22"/>
		
			<ellipse transform="matrix(0.1001 -0.995 0.995 0.1001 37.2457 76.0507)" class="st4" cx="60.67" cy="17.43" rx="4.18" ry="1.22"/>
		<ellipse transform="matrix(0.1001 -0.995 0.995 0.1001 37.1003 79.705)" class="st4" cx="62.61" cy="19.34" rx="4.18" ry="1.22"/>
		<ellipse transform="matrix(0.1001 -0.995 0.995 0.1001 37.8746 82.6817)" class="st4" cx="64.65" cy="20.4" rx="4.18" ry="1.22"/>
		<ellipse transform="matrix(0.1001 -0.995 0.995 0.1001 38.5278 86.457)" class="st4" cx="67.06" cy="21.93" rx="4.18" ry="1.22"/>
		
			<ellipse transform="matrix(0.1001 -0.995 0.995 0.1001 33.5434 68.1369)" class="st4" cx="54.44" cy="15.52" rx="4.18" ry="1.22"/>
		
			<ellipse transform="matrix(0.1001 -0.995 0.995 0.1001 33.6887 64.4826)" class="st4" cx="52.49" cy="13.62" rx="4.18" ry="1.22"/>
		
			<ellipse transform="matrix(0.2183 -0.9759 0.9759 0.2183 30.6251 85.8173)" class="st4" cx="68.88" cy="23.79" rx="4.21" ry="1.23"/>
		
			<ellipse transform="matrix(0.1001 -0.995 0.995 0.1001 32.7818 61.0675)" class="st4" cx="50.15" cy="12.41" rx="4.18" ry="1.22"/>
	</g>
	<g>
		<path class="st5" d="M27.28,58.45h-0.43v-4.27c0-0.24,0.2-0.43,0.43-0.43s0.43,0.2,0.43,0.43v3.84
			C27.71,58.26,27.52,58.45,27.28,58.45z"/>
		<path class="st6" d="M33.45,56.52c-1.6,0-3.2,0-4.8,0c-0.04-0.11-0.35-0.91-1.2-1.2c-0.55-0.18-1.02-0.06-1.2,0c0-0.8,0-1.6,0-2.4
			c1.87,0,3.73,0,5.6,0c0.88,0,1.61,0.72,1.61,1.61v0.38C33.45,55.44,33.45,55.98,33.45,56.52z"/>
		<rect x="25.04" y="52.91" class="st5" width="1.2" height="2.4"/>
		<path class="st5" d="M32.25,58.92h-3.6v-1c0-0.77,0.63-1.41,1.41-1.41h0.79c0.77,0,1.41,0.63,1.41,1.41V58.92z"/>
		<path class="st7" d="M30.45,74.53h-3.6c-0.99,0-1.8-0.81-1.8-1.8c0-2.2,0-4.4,0-6.61c0.55-0.32,3.04-1.87,3.6-4.8
			c0.18-0.94,0.12-1.77,0-2.4c1.2,0,2.4,0,3.6,0v13.81C32.25,73.72,31.44,74.53,30.45,74.53z"/>
		<path class="st8" d="M26.98,70.93h-0.26c-0.26,0-0.47-0.21-0.47-0.47v-3.87c0-0.26,0.21-0.47,0.47-0.47h0.26
			c0.26,0,0.47,0.21,0.47,0.47v3.87C27.44,70.72,27.23,70.93,26.98,70.93z"/>
		<circle class="st8" cx="26.84" cy="72.73" r="0.6"/>
	</g>
	<g>
		<path class="st5" d="M21.89,58.59h-0.43v-4.27c0-0.24,0.2-0.43,0.43-0.43s0.43,0.2,0.43,0.43v3.84
			C22.32,58.4,22.12,58.59,21.89,58.59z"/>
		<path class="st9" d="M28.06,56.66c-1.6,0-3.2,0-4.8,0c-0.04-0.11-0.35-0.91-1.2-1.2c-0.55-0.18-1.02-0.06-1.2,0c0-0.8,0-1.6,0-2.4
			c1.87,0,3.73,0,5.6,0c0.88,0,1.61,0.72,1.61,1.61v0.38C28.06,55.59,28.06,56.12,28.06,56.66z"/>
		<rect x="19.65" y="53.05" class="st5" width="1.2" height="2.4"/>
		<path class="st5" d="M26.86,59.06h-3.6v-1c0-0.77,0.63-1.41,1.41-1.41h0.79c0.77,0,1.41,0.63,1.41,1.41V59.06z"/>
		<path class="st7" d="M25.05,74.67h-3.6c-0.99,0-1.8-0.81-1.8-1.8c0-2.2,0-4.4,0-6.61c0.55-0.32,3.04-1.87,3.6-4.8
			c0.18-0.94,0.12-1.77,0-2.4c1.2,0,2.4,0,3.6,0v13.81C26.86,73.86,26.05,74.67,25.05,74.67z"/>
		<path class="st8" d="M21.58,71.07h-0.26c-0.26,0-0.47-0.21-0.47-0.47v-3.87c0-0.26,0.21-0.47,0.47-0.47h0.26
			c0.26,0,0.47,0.21,0.47,0.47v3.87C22.05,70.86,21.84,71.07,21.58,71.07z"/>
		<circle class="st8" cx="21.45" cy="72.87" r="0.6"/>
	</g>
	<path class="st10" d="M26.15,32.99c7.33-0.47,14.66-0.95,22-1.42c0.05,2.51,0.09,5.01,0.14,7.52c-7.19,0.05-14.38,0.09-21.57,0.14
		C26.53,37.15,26.34,35.07,26.15,32.99z"/>
	<path class="st11" d="M49.56,41.65c-7.9,0.38-15.8,0.76-23.7,1.14c0-1.51,0-3.03,0-4.54c7.9-0.52,15.8-1.04,23.7-1.56
		C49.56,38.34,49.56,39.99,49.56,41.65z"/>
	
		<rect x="38.03" y="39.68" transform="matrix(0.9969 -0.0782 0.0782 0.9969 -4.3677 3.2344)" class="st11" width="2.13" height="35.37"/>
	<path class="st12" d="M33.89,129.06H7.2c-1.3,0-2.36-1.06-2.36-2.36C3.96,108.41,3.08,90.13,2.2,71.85c14.38,0,28.75,0,43.13,0
		c-0.15,15.4-0.29,30.81-0.44,46.21C44.89,124.11,39.94,129.06,33.89,129.06z"/>
	<path class="st13" d="M38.29,91.65c5.72-0.15,11.44-0.29,17.16-0.44c-0.29,4.69-0.59,9.39-0.88,14.08
		c-5.72-0.15-11.44-0.29-17.16-0.44C37.7,100.45,37.99,96.05,38.29,91.65z"/>
	<rect x="16.5" y="104.19" class="st14" width="24.65" height="3.96"/>
	<path class="st9" d="M74.16,103.09c-1.11,11.59-2.23,23.18-3.34,34.77c-10.5,0-21,0-31.5,0c-0.64-11.59-1.27-23.18-1.91-34.77
		C49.66,103.09,61.91,103.09,74.16,103.09z"/>
	<path class="st15" d="M16.72,91.21c0-0.88,0-1.76,0-2.64c7.77,0,15.55,0,23.32,0c-0.88,5.43-1.76,10.86-2.64,16.28
		c-6.31-0.15-12.62-0.29-18.92-0.44C17.9,100.01,17.31,95.61,16.72,91.21z"/>
	<path class="st16" d="M68.21,137.86c7.33-0.29,14.67-0.59,22-0.88c0.73-11.3,1.47-22.59,2.2-33.89c-6.89,0-13.79,0-20.68,0
		C70.56,114.68,69.39,126.27,68.21,137.86z"/>
	<path class="st13" d="M40.05,88.57c5.57-0.15,11.15-0.29,16.72-0.44c0,1.03,0,2.05,0,3.08c-5.72,0.15-11.44,0.29-17.16,0.44
		C39.75,90.62,39.9,89.6,40.05,88.57z"/>
	<rect x="54.57" y="75.59" class="st14" width="3.74" height="24.43"/>
	<path class="st17" d="M35.87,99.35c11.88,0,23.76,0,35.65,0c0,1.32,0,2.64,0,3.96c-11.88,0-23.76,0-35.65,0
		C35.87,101.99,35.87,100.67,35.87,99.35z"/>
	<path class="st18" d="M94.18,99.57c-7.55-0.07-15.11-0.15-22.66-0.22c0,1.32,0,2.64,0,3.96c7.55-0.07,15.11-0.15,22.66-0.22
		C94.18,101.92,94.18,100.75,94.18,99.57z"/>
	<rect x="39.17" y="136.54" class="st1" width="51.05" height="1.32"/>
	<path class="st14" d="M93.78,144.46H18.66c-0.94,0-1.72-0.77-1.72-1.72v-0.97c0-0.94,0.77-1.72,1.72-1.72h75.12
		c0.94,0,1.72,0.77,1.72,1.72v0.97C95.5,143.69,94.73,144.46,93.78,144.46z"/>
	<path class="st19" d="M45.33,86.37c-6.65-1.97-14.64-3.79-23.76-4.84c-6.95-0.8-13.31-1-18.92-0.88c-0.15-2.93-0.29-5.87-0.44-8.8
		h43.13V86.37z"/>
	<path class="st14" d="M33.23,77.57H14.74c-0.95-1.91-1.91-3.81-2.86-5.72c0.95,0,1.91,0,2.86,0h18.48c1.57,0,2.86,1.29,2.86,2.86
		C36.09,76.28,34.8,77.57,33.23,77.57z"/>
	<path class="st20" d="M33.01,141.38c0-23.4,0-46.8,0-70.19c9.1,0,18.19,0,27.29,0c0,9.39,0,18.78,0,28.17c-0.88,0-1.76,0-2.64,0
		c0-7.6,0-15.2,0-22.8c-7.19,0-14.38,0-21.56,0c0,21.61,0,43.22,0,64.83C35.06,141.38,34.03,141.38,33.01,141.38z"/>
	<rect x="29.49" y="77.57" class="st14" width="3.52" height="64.25"/>
	<path class="st14" d="M62.88,71.85H2.25c-0.76,0-1.37-0.62-1.37-1.37V69.7c0-0.76,0.62-1.37,1.37-1.37h60.63
		c0.76,0,1.37,0.62,1.37,1.37v0.77C64.25,71.23,63.64,71.85,62.88,71.85z"/>
	<path class="st14" d="M18.49,148.2c-0.02,0-0.05,0-0.07,0c-0.85-0.04-1.51-0.76-1.47-1.61c0.02-0.51,0.12-5.06-3.41-7.99
		c-2.89-2.41-7.08-2.84-10.67-1.12c-0.77,0.37-1.69,0.05-2.06-0.72c-0.37-0.77-0.05-1.69,0.72-2.06c4.67-2.25,10.16-1.65,13.98,1.52
		c4.57,3.8,4.56,9.41,4.51,10.5C19.99,147.56,19.3,148.2,18.49,148.2z"/>
	<path class="st14" d="M52.37,148.2c-0.02,0-0.05,0-0.07,0c-0.85-0.04-1.51-0.76-1.47-1.61c0.02-0.51,0.12-5.06-3.41-7.99
		c-2.89-2.41-7.08-2.84-10.67-1.12c-0.77,0.37-1.69,0.05-2.06-0.72c-0.37-0.77-0.05-1.69,0.72-2.06c4.67-2.25,10.16-1.65,13.98,1.52
		c4.57,3.8,4.56,9.41,4.51,10.5C53.87,147.56,53.19,148.2,52.37,148.2z"/>
	<path class="st21" d="M12.1,98.03c4.84,0.73,9.68,1.47,14.52,2.2c1.42-4.79,1.85-8.63,1.98-11.22c0.06-1.13,0.06-2.25-0.44-3.52
		c-0.99-2.51-3.61-4.71-6.6-4.84c-2.2-0.1-3.85,0.96-4.4,1.32C11.05,85.91,12.01,97.07,12.1,98.03z"/>
	<path class="st21" d="M23.32,69.21c0.85,0.5,0.99,1.83,0.88,3.96c-0.1,1.93-0.4,4.64-1.32,7.92c-1.03,0-2.05,0-3.08,0
		c-0.44-3.4-0.26-6.1,0-7.92c0.33-2.36,0.81-3.51,1.76-3.96C22.06,68.97,22.78,68.88,23.32,69.21z"/>
	<path class="st22" d="M12.09,98.03c4.32,0.66,8.65,1.32,12.97,1.98c1.12-4.71,1.45-8.47,1.55-11c0.05-1.23,0.04-2.3-0.39-3.52
		c-0.87-2.51-3.18-4.71-5.81-4.84c-1.94-0.1-3.38,0.96-3.87,1.32C11.16,85.91,12.01,97.07,12.09,98.03z"/>
	<path class="st22" d="M22.44,69.21c0.85,0.5,0.99,1.83,0.88,3.96c-0.1,1.93-0.4,4.64-1.32,7.92c-1.03,0-2.05,0-3.08,0
		c-0.44-3.4-0.26-6.1,0-7.92c0.33-2.36,0.81-3.51,1.76-3.96C21.18,68.97,21.9,68.88,22.44,69.21z"/>
	<rect x="36.31" y="88.35" class="st15" width="6.6" height="2.64"/>
	<path class="st20" d="M21.1,71.63h-2.15c-0.38,0-0.69-0.31-0.69-0.69v-0.39c0-0.38,0.31-0.69,0.69-0.69h2.15
		c0.38,0,0.69,0.31,0.69,0.69v0.39C21.78,71.32,21.48,71.63,21.1,71.63z"/>
</g>
</svg>
