<?xml version="1.0" encoding="utf-8"?>
<!-- Generator: Adobe Illustrator 27.3.1, SVG Export Plug-In . SVG Version: 6.00 Build 0)  -->
<svg version="1.1" id="Слой_1" xmlns="http://www.w3.org/2000/svg" xmlns:xlink="http://www.w3.org/1999/xlink" x="0px" y="0px"
	 viewBox="0 0 98.13 153.7" style="enable-background:new 0 0 98.13 153.7;" xml:space="preserve">
<style type="text/css">
	.st0{fill:#F1F1F1;}
	.st1{fill:#333333;}
	.st2{fill:#DCC13C;}
	.st3{fill:#4377A8;}
	.st4{fill:#FB6265;}
	.st5{fill:#FFFFFF;}
	.st6{fill:#3ACCE4;}
	.st7{fill:#FDDF51;}
</style>
<g>
	<path class="st0" d="M54.51,104.46H18.29c-5.62,0-10.2-4.58-10.2-10.2v-20.4c0-5.62,4.58-10.2,10.2-10.2h36.23
		c5.62,0,10.2,4.58,10.2,10.2v20.4C64.71,99.89,60.14,104.46,54.51,104.46z M18.29,66.48c-4.07,0-7.39,3.31-7.39,7.39v20.4
		c0,4.07,3.31,7.39,7.39,7.39h36.23c4.07,0,7.39-3.31,7.39-7.39v-20.4c0-4.07-3.31-7.39-7.39-7.39H18.29z"/>
	
		<rect x="22.02" y="57.47" transform="matrix(0.5264 -0.8502 0.8502 0.5264 -20.8018 81.109)" class="st1" width="80.76" height="3.52"/>
	<path class="st2" d="M26.99,99.89h-7.56c-3.43,0-6.24-2.81-6.24-6.24v0c0-3.43,2.81-6.24,6.24-6.24h7.56
		c3.43,0,6.24,2.81,6.24,6.24v0C33.24,97.08,30.43,99.89,26.99,99.89z"/>
	<path class="st3" d="M50.97,141.04H25c-13.75,0-25-11.25-25-25V90.4h75.97v25.65C75.97,129.79,64.72,141.04,50.97,141.04z"/>
	<path class="st4" d="M82.13,88.29h-2.92c-8.74,0-15.9,7.15-15.9,15.9v36.45c0,2.54,2.08,4.63,4.63,4.63H93.5
		c2.54,0,4.63-2.08,4.63-4.63v-36.35C98.13,95.49,90.93,88.29,82.13,88.29z M91.8,116.77c0,1.74-1.42,3.17-3.17,3.17
		s-3.17-1.42-3.17-3.17v-15.83c0-1.74,1.42-3.17,3.17-3.17h1.49c0.92,0,1.68,0.75,1.68,1.68V116.77z"/>
	<rect x="72.8" y="83.36" class="st3" width="15.83" height="6.33"/>
	<path class="st3" d="M85.46,83.36h-9.5c1.06-4.22,2.11-8.44,3.17-12.66c1.06,0,2.11,0,3.17,0C83.35,74.92,84.41,79.14,85.46,83.36z
		"/>
	<path class="st4" d="M37.54,111.32H36.4v-11.25c0-0.63,0.51-1.14,1.14-1.14c0.63,0,1.14,0.51,1.14,1.14v10.11
		C38.69,110.81,38.17,111.32,37.54,111.32z"/>
	<path class="st5" d="M53.81,106.22c-4.22,0-8.44,0-12.66,0c-0.11-0.3-0.92-2.41-3.17-3.17c-1.44-0.49-2.7-0.15-3.17,0
		c0-2.11,0-4.22,0-6.33c4.92,0,9.83,0,14.75,0c2.33,0,4.24,1.91,4.24,4.24v1.01C53.81,103.4,53.81,104.81,53.81,106.22z"/>
	<rect x="31.65" y="96.73" class="st4" width="3.17" height="6.33"/>
	<path class="st4" d="M50.65,112.55h-9.5v-2.77c0-1.96,1.6-3.56,3.56-3.56h2.38c1.96,0,3.56,1.6,3.56,3.56V112.55z"/>
	<path class="st6" d="M45.9,153.7h-9.5c-2.61,0-4.75-2.14-4.75-4.75c0-5.8,0-11.61,0-17.41c1.44-0.85,8.01-4.92,9.5-12.66
		c0.48-2.47,0.31-4.66,0-6.33c3.17,0,6.33,0,9.5,0v36.4C50.65,151.57,48.51,153.7,45.9,153.7z"/>
	<path class="st5" d="M36.4,144.21L36.4,144.21c-0.87,0-1.58-0.71-1.58-1.58v-9.5c0-0.87,0.71-1.58,1.58-1.58h0
		c0.87,0,1.58,0.71,1.58,1.58v9.5C37.98,143.5,37.27,144.21,36.4,144.21z"/>
	<circle class="st5" cx="36.4" cy="148.96" r="1.58"/>
	<path class="st4" d="M93.38,10.84l-2.01-1.16c-1.51-0.87-3.45-0.35-4.32,1.16l-7.91,13.71l7.49,4.32l7.91-13.71
		C95.41,13.66,94.89,11.71,93.38,10.84z M91.76,15.18l-4.03,6.99c-0.44,0.75-1.41,1.01-2.16,0.58l-0.5-0.29
		c-0.75-0.44-1.01-1.41-0.58-2.16l4.03-6.99c0.44-0.75,1.41-1.01,2.16-0.58l0.5,0.29C91.93,13.45,92.2,14.43,91.76,15.18z"/>
	<path class="st7" d="M28.87,94.36v-3.8c0-1.76-1.44-3.2-3.2-3.2H9.69c-1.76,0-3.2,1.44-3.2,3.2v1.12
		c-0.01,0.08-0.02,0.15-0.02,0.23V100c0,0.83,0.68,1.52,1.52,1.52c0.83,0,1.52-0.68,1.52-1.52c0-0.8,0-1.59,0-2.39
		c0-0.49,0.4-0.89,0.89-0.89c0.49,0,0.89,0.4,0.89,0.89c0.01,3.1,0.01,6.19,0.02,9.29c0,0.83,0.68,1.52,1.52,1.52
		c0.83,0,1.52-0.68,1.52-1.52c0.02-3.57,0.03-7.14,0.05-10.72c0-0.49,0.4-0.89,0.89-0.89c0.49,0,0.89,0.4,0.89,0.89
		c0.01,4.51,0.01,9.02,0.02,13.53c0,0.83,0.68,1.52,1.52,1.52s1.52-0.68,1.52-1.52c0-4.67,0-9.33,0-14c0-0.49,0.4-0.89,0.89-0.89
		c0.49,0,0.89,0.4,0.89,0.89c0.01,3.92,0.01,7.84,0.02,11.76c0,0.83,0.68,1.52,1.52,1.52c0.83,0,1.52-0.68,1.52-1.52
		c0-3.52,0-7.04,0-10.57c0-0.49,0.4-0.89,0.89-0.89c0.49,0,0.89,0.4,0.89,0.89c0.01,1.88,0.01,3.76,0.02,5.64
		c0,0.83,0.68,1.52,1.52,1.52c0.83,0,1.52-0.68,1.52-1.52v-8.09C28.88,94.43,28.87,94.4,28.87,94.36z"/>
</g>
</svg>
