<?xml version="1.0" encoding="utf-8"?>
<!-- Generator: Adobe Illustrator 27.3.1, SVG Export Plug-In . SVG Version: 6.00 Build 0)  -->
<svg version="1.1" id="Слой_1" xmlns="http://www.w3.org/2000/svg" xmlns:xlink="http://www.w3.org/1999/xlink" x="0px" y="0px"
	 viewBox="0 0 118.66 153.7" style="enable-background:new 0 0 118.66 153.7;" xml:space="preserve">
<style type="text/css">
	.st0{fill:none;stroke:#FBC04B;stroke-width:4;stroke-linecap:round;stroke-miterlimit:10;}
	.st1{fill:#2AA8F4;}
	.st2{fill:none;stroke:#FBC04B;stroke-width:3;stroke-miterlimit:10;}
	.st3{fill:#0174FF;}
	.st4{fill:none;stroke:#FBC04B;stroke-width:2;stroke-linecap:round;stroke-miterlimit:10;}
</style>
<g>
	<line class="st0" x1="28.72" y1="44.95" x2="28.72" y2="26.5"/>
	<line class="st0" x1="84.08" y1="44.95" x2="84.08" y2="26.5"/>
	<path class="st1" d="M90.54,128H22.26c-6.6,0-12-5.4-12-12V56.95c0-6.6,5.4-12,12-12h68.28c6.6,0,12,5.4,12,12V116
		C102.54,122.6,97.14,128,90.54,128z"/>
	<line class="st2" x1="10.26" y1="63.41" x2="102.54" y2="63.41"/>
	<circle class="st3" cx="33.33" cy="84.42" r="4.61"/>
	<circle class="st3" cx="56.42" cy="84.42" r="4.61"/>
	<circle class="st3" cx="79.47" cy="84.42" r="4.61"/>
	<circle class="st3" cx="56.42" cy="104.93" r="4.61"/>
	<circle class="st3" cx="79.47" cy="104.93" r="4.61"/>
</g>
<rect x="22.86" y="52.4" class="st4" width="88.2" height="88.2"/>
</svg>
