<?xml version="1.0" encoding="utf-8"?>
<!-- Generator: Adobe Illustrator 27.3.1, SVG Export Plug-In . SVG Version: 6.00 Build 0)  -->
<svg version="1.1" id="Слой_1" xmlns="http://www.w3.org/2000/svg" xmlns:xlink="http://www.w3.org/1999/xlink" x="0px" y="0px"
	 viewBox="0 0 118.66 153.7" style="enable-background:new 0 0 118.66 153.7;" xml:space="preserve">
<style type="text/css">
	.st0{fill:#FB6265;}
	.st1{fill:#F1F1F1;}
	.st2{fill:#2AA8F4;}
	.st3{fill:#FFFFFF;}
	.st4{fill:none;stroke:#FF7380;stroke-width:2;stroke-miterlimit:10;}
</style>
<path class="st0" d="M64.56,45.82h-2.24V23.81c0-1.23,1.01-2.24,2.24-2.24s2.24,1.01,2.24,2.24v19.78
	C66.79,44.82,65.79,45.82,64.56,45.82z"/>
<path class="st1" d="M96.38,35.85c-8.26,0-16.51,0-24.77,0c-0.21-0.58-1.8-4.71-6.19-6.19c-2.82-0.95-5.28-0.29-6.19,0
	c0-4.13,0-8.26,0-12.39c9.62,0,19.24,0,28.86,0c4.56,0,8.3,3.73,8.3,8.3v1.98C96.38,30.32,96.38,33.08,96.38,35.85z"/>
<rect x="53.03" y="17.27" class="st0" width="6.19" height="12.39"/>
<path class="st0" d="M90.19,48.23H71.61v-8.83c0-1.96,1.6-3.56,3.56-3.56h11.46c1.96,0,3.56,1.6,3.56,3.56V48.23z"/>
<path class="st2" d="M80.9,128.74H62.32c-5.11,0-9.29-4.18-9.29-9.29c0-11.35,0-22.71,0-34.06c2.82-1.66,15.66-9.63,18.58-24.77
	c0.93-4.83,0.6-9.12,0-12.39c6.19,0,12.39,0,18.58,0v71.22C90.19,124.56,86.01,128.74,80.9,128.74z"/>
<path class="st3" d="M63.83,110.16h-3.03c-0.87,0-1.58-0.71-1.58-1.58V86.97c0-0.87,0.71-1.58,1.58-1.58h3.03
	c0.87,0,1.58,0.71,1.58,1.58v21.61C65.42,109.45,64.7,110.16,63.83,110.16z"/>
<circle class="st3" cx="62.32" cy="119.45" r="3.1"/>
<circle class="st4" cx="59.33" cy="99.17" r="44.1"/>
</svg>
