<?xml version="1.0" encoding="utf-8"?>
<!-- Generator: Adobe Illustrator 27.3.1, SVG Export Plug-In . SVG Version: 6.00 Build 0)  -->
<svg version="1.1" id="Слой_1" xmlns="http://www.w3.org/2000/svg" xmlns:xlink="http://www.w3.org/1999/xlink" x="0px" y="0px"
	 viewBox="0 0 134.7 153.7" style="enable-background:new 0 0 134.7 153.7;" xml:space="preserve">
<style type="text/css">
	.st0{fill:#2AA8F4;}
	.st1{fill:#FFFFFF;}
	.st2{fill:#C6D73C;}
	.st3{fill:#0174FF;}
	.st4{fill:#FDC531;}
	.st5{fill:none;stroke:#C6D73C;stroke-width:2;stroke-miterlimit:10;}
</style>
<g>
	<g>
		<rect x="4.62" y="35.45" class="st0" width="86.46" height="91.91"/>
		<rect x="45.48" y="35.3" class="st1" width="4.76" height="92.46"/>
		<rect x="3.55" y="20.57" class="st0" width="88.21" height="4.76"/>
		<path class="st1" d="M73.01,70.11c-0.79,0-1.43-0.64-1.43-1.43V22.95c0-0.79,0.64-1.43,1.43-1.43c0.79,0,1.43,0.64,1.43,1.43
			v45.73C74.44,69.47,73.8,70.11,73.01,70.11z"/>
		<path class="st1" d="M73.01,81.78c-3.94,0-7.14-3.21-7.14-7.14s3.21-7.14,7.14-7.14c3.94,0,7.14,3.21,7.14,7.14
			S76.95,81.78,73.01,81.78z M73.01,70.35c-2.36,0-4.29,1.92-4.29,4.29c0,2.36,1.92,4.29,4.29,4.29c2.36,0,4.29-1.92,4.29-4.29
			C77.3,72.27,75.38,70.35,73.01,70.35z"/>
		<path class="st2" d="M27.94,106.86l-2.85-0.15c0.21-3.77,0.01-7.56-0.59-11.28c-0.76-4.71-2.16-9.3-4.16-13.66l2.6-1.19
			c2.11,4.59,3.58,9.43,4.38,14.39C27.95,98.89,28.16,102.89,27.94,106.86z"/>
		<path class="st3" d="M36.88,126.3H17.67c-1.98-9.15-3.96-18.29-5.94-27.44c10.06,0,20.12,0,30.18,0
			C40.23,108.01,38.56,117.15,36.88,126.3z"/>
		<circle class="st4" cx="17.02" cy="78.48" r="3.94"/>
		<circle class="st4" cx="27.12" cy="78.16" r="3.94"/>
		<circle class="st4" cx="21.59" cy="76.91" r="4.27"/>
		<circle class="st4" cx="21.59" cy="90.15" r="3.94"/>
		<circle class="st4" cx="16.7" cy="87.95" r="3.94"/>
		<circle class="st4" cx="26.17" cy="88.58" r="3.94"/>
		<circle class="st4" cx="29.32" cy="83.69" r="3.94"/>
		<circle class="st4" cx="14.49" cy="83.05" r="3.94"/>
		<circle class="st1" cx="21.63" cy="83.05" r="6.31"/>
	</g>
	<polygon class="st5" points="85.46,140.36 129.56,140.36 107.51,96.26 85.46,52.16 63.41,96.26 41.36,140.36 	"/>
</g>
</svg>
