<?xml version="1.0" encoding="UTF-8"?>
<!-- Generator: visioncortex VTracer 0.6.2 -->
<svg version="1.1" xmlns="http://www.w3.org/2000/svg" width="1280" height="896">
<path d="M0 0 C422.4 0 844.8 0 1280 0 C1280.350625 106.3425 1280.70125 212.685 1281.0625 322.25 C1281.21726807 355.86649414 1281.37203613 389.48298828 1281.53149414 424.11816406 C1281.60827637 465.06982422 1281.60827637 465.06982422 1281.62254333 484.22210693 C1281.63947169 498.52493116 1281.71284308 512.8263933 1281.81344827 527.12883501 C1281.91464188 541.71190909 1281.95222547 556.29412237 1281.92856416 570.87753437 C1281.91636254 579.55005901 1281.95019865 588.21938199 1282.05372912 596.89131416 C1282.117476 602.61939629 1282.1194022 608.34535262 1282.07120078 614.07358119 C1282.04550038 617.33703631 1282.05586608 620.59312307 1282.12300384 623.85616636 C1282.48840313 642.72213855 1282.48840313 642.72213855 1278.33995764 648.18669909 C1274.38223159 651.93791962 1269.96539597 654.56042856 1265.09013658 656.95005652 C1262.0368083 658.48384247 1259.27898027 660.3552034 1256.4375 662.25 C1218.50062042 685.05954885 1171.79373925 696.65990395 1128 686 C1127.26813477 685.83371094 1126.53626953 685.66742187 1125.78222656 685.49609375 C1097.35559518 678.99444998 1071.94387438 666.06097618 1046.09375 653.015625 C1016.78161553 638.22389438 987.65440495 624.40756946 955 619 C953.56454834 618.73848145 953.56454834 618.73848145 952.10009766 618.47167969 C910.83101272 612.19259069 870.18997292 629.46218222 837.3125 653 C835.53596771 654.32573055 833.76536837 655.6594393 832 657 C830.92974361 657.80085623 829.85942838 658.60163385 828.7890625 659.40234375 C821.87149972 664.61427537 815.37717233 670.13211574 809 676 C807.73303062 677.10859821 806.46233444 678.2129553 805.1875 679.3125 C794.29121825 688.83579568 783.9462189 698.89242151 773.73193359 709.13769531 C771.61018991 711.26484784 769.48308509 713.38653561 767.35546875 715.5078125 C765.9788456 716.88509583 764.60253234 718.26268899 763.2265625 719.640625 C762.60351227 720.261651 761.98046204 720.882677 761.33853149 721.52252197 C757.60593695 725.2747859 754.06280612 729.1414988 750.61898804 733.16082764 C747.35753276 736.86584476 743.77747314 740.2622026 740.25 743.7109375 C737.33071741 746.59112255 734.52774505 749.50679817 731.86694336 752.62866211 C727.65899591 757.46152411 723.16402967 761.97976912 718.62890625 766.50390625 C717.74774643 767.3860228 716.86658661 768.26813934 715.95872498 769.17698669 C713.6342325 771.50232809 711.30734093 773.82523618 708.97961426 776.14733887 C707.56355322 777.56144824 706.14945679 778.97749121 704.73608398 780.39428711 C701.99471744 783.1418672 699.24986966 785.88592106 696.50390625 788.62890625 C695.67033096 789.46450577 694.83675568 790.30010529 693.97792053 791.161026 C689.68024639 795.44171661 685.31667352 799.57900733 680.71075439 803.52735901 C678.13805362 805.74197534 675.67143696 808.06129089 673.1875 810.375 C667.63944347 815.48762397 661.90989371 820.30750013 656 825 C655.3901123 825.49306641 654.78022461 825.98613281 654.15185547 826.49414062 C636.62705846 840.65092414 617.99535994 853.56878069 598 864 C597.36755371 864.33402832 596.73510742 864.66805664 596.08349609 865.01220703 C567.429068 880.06889799 537.28416412 889.2899487 505.23095703 893.69140625 C503.79054278 893.89064937 502.35126536 894.09838054 500.91357422 894.31640625 C416.04044003 907.13969595 323.32927364 871.6487409 250.73535156 830.54199219 C247.77939241 828.87563749 244.80905238 827.23709855 241.8359375 825.6015625 C229.15368461 818.60268314 216.71750541 811.3026542 204.47460938 803.56152344 C202.03624183 802.02286925 199.5897115 800.49808471 197.140625 798.9765625 C185.87785873 791.95743746 174.88452521 784.59095022 164 777 C163.25975586 776.48405273 162.51951172 775.96810547 161.75683594 775.43652344 C142.41590544 761.92789127 123.47165978 747.85887502 104.82226562 733.41162109 C103.50386778 732.39032202 102.18476777 731.36992916 100.86523438 730.35009766 C91.81034024 723.3501464 82.81453698 716.30177185 74 709 C72.68279432 707.91995959 71.36504146 706.84058634 70.046875 705.76171875 C61.51202638 698.76914925 53.06475212 691.68872354 44.71484375 684.4765625 C42.95049423 682.95737316 41.17940225 681.44640278 39.40625 679.9375 C33.96728764 675.30510099 28.57372285 670.64774316 23.3125 665.8125 C18.90657629 661.76995144 14.36344267 657.94853368 9.703125 654.203125 C8.81109375 653.47609375 7.9190625 652.7490625 7 652 C6.4175679 651.62148723 5.83513581 651.24297446 5.23505425 650.8529916 C2.3443441 648.80000199 0.33699777 647.19512214 -0.64675366 643.70636578 C-0.89269908 640.84107904 -0.91314258 638.04847796 -0.8613348 635.17289162 C-0.87344912 633.52587343 -0.87344912 633.52587343 -0.88580817 631.84558215 C-0.9044102 628.14758673 -0.87288477 624.451702 -0.84178162 620.7538147 C-0.84484269 618.09041895 -0.85068383 615.42716179 -0.85993958 612.76379395 C-0.87449321 606.95534445 -0.86293947 601.1473971 -0.83450592 595.33900571 C-0.79181786 586.59003789 -0.78991458 577.8413744 -0.79576301 569.09232109 C-0.80446131 554.43111196 -0.78138838 539.77012218 -0.73902893 525.10897827 C-0.68185402 505.28505597 -0.66831054 485.461509 -0.66223145 465.63745117 C-0.6254521 417.96658945 -0.52772467 370.29579053 -0.4375 322.625 C-0.293125 216.15875 -0.14875 109.6925 0 0 Z " fill="#EFF6FC" transform="translate(0,0)"/>
</svg>
