<?xml version="1.0" encoding="utf-8"?>
<!-- Uploaded to: SVG Repo, www.svgrepo.com, Generator: SVG Repo Mixer Tools -->
<svg width="800px" height="800px" viewBox="0 0 1024 1024" class="icon"  version="1.1" xmlns="http://www.w3.org/2000/svg"><path d="M529.756219 107.847889c-231.785112 0-419.711072 187.929032-419.711072 419.711072 0 231.785112 187.92596 419.711072 419.711072 419.711073s419.711072-187.92596 419.711073-419.711073c0-231.78204-187.92596-419.711072-419.711073-419.711072z m34.975923 489.662918h-244.831459v-34.975923h209.855536V249.186043h34.975923v348.324764z" fill="#98C4D8" /><path d="M494.780297 72.871966c-231.785112 0-419.711072 187.929032-419.711073 419.711073 0 231.785112 187.92596 419.711072 419.711073 419.711072s419.711072-187.92596 419.711072-419.711072c0-231.78204-187.92596-419.711072-419.711072-419.711073z m34.975922 489.662918h-244.831459v-34.975923h209.855537V214.21012h34.975922v348.324764z" fill="#EFD9A0" /><path d="M266.225525 280.158819a31.467068 66.866879 55.515 1 0 110.233319-75.718778 31.467068 66.866879 55.515 1 0-110.233319 75.718778Z" fill="#FEFEFE" /><path d="M198.655961 390.199999a20.977363 36.711408 55.515 1 0 60.520551-41.571299 20.977363 36.711408 55.515 1 0-60.520551 41.571299Z" fill="#FEFEFE" /></svg>