<?xml version="1.0" encoding="utf-8"?>
<!-- Generator: Adobe Illustrator 27.3.1, SVG Export Plug-In . SVG Version: 6.00 Build 0)  -->
<svg version="1.1" id="Слой_1" xmlns="http://www.w3.org/2000/svg" xmlns:xlink="http://www.w3.org/1999/xlink" x="0px" y="0px"
	 viewBox="0 0 118.66 153.7" style="enable-background:new 0 0 118.66 153.7;" xml:space="preserve">
<style type="text/css">
	.st0{fill:none;stroke:#FBC04B;stroke-width:2;stroke-linecap:round;stroke-miterlimit:10;}
	.st1{fill:#C6D73C;}
	.st2{fill:none;stroke:#C6D73C;stroke-width:3;stroke-miterlimit:10;}
</style>
<g>
	<circle class="st0" cx="33.16" cy="98.15" r="31.5"/>
	<g>
		<path class="st1" d="M26.67,57.73c7.36-10.32,20.03-14.81,31.06-11.34C70.45,50.4,74.8,63.05,75.24,64.38
			c-3.56,2.04-9.51,4.78-17.23,5.27C41.01,70.73,29.13,60.04,26.67,57.73z"/>
		<path class="st1" d="M93.2,61.33c5.6-6.98,15.68-9.71,25.46-6.84c-0.01,2.69-0.45,8.23-4.18,13.3
			c-5.41,7.33-15.49,10.62-25.78,8.54C88.57,74.12,88.47,67.23,93.2,61.33z"/>
		<path class="st2" d="M67.77,60.5c5.52,2.04,12.44,5.69,14.85,12.38c1.99,5.53,0.63,12.39,1.07,12.42c0.39,0.03,0.13-5.45,3.6-8.45
			c1.45-1.25,3.09-1.69,4.06-1.87"/>
		<g>
			<path class="st1" d="M33.04,93.31c0.11,6.51,4.27,9.19,9.08,9.19c3.45,0,5.53-0.6,7.33-1.37l0.82,3.45
				c-1.7,0.77-4.6,1.64-8.81,1.64c-8.15,0-13.02-5.36-13.02-13.35c0-7.99,4.71-14.28,12.42-14.28c8.65,0,10.94,7.61,10.94,12.48
				c0,0.99-0.11,1.75-0.16,2.24H33.04z M47.15,89.86c0.05-3.06-1.26-7.83-6.68-7.83c-4.87,0-7,4.49-7.39,7.83H47.15z"/>
			<path class="st1" d="M76.65,104.69c-1.26,0.66-4.05,1.53-7.61,1.53c-7.99,0-13.19-5.42-13.19-13.52
				c0-8.15,5.58-14.06,14.23-14.06c2.85,0,5.36,0.71,6.68,1.37l-1.09,3.72c-1.15-0.66-2.96-1.26-5.58-1.26
				c-6.07,0-9.36,4.49-9.36,10.01c0,6.13,3.94,9.91,9.19,9.91c2.74,0,4.54-0.71,5.91-1.31L76.65,104.69z"/>
			<path class="st1" d="M105.92,92.21c0,9.8-6.79,14.06-13.19,14.06c-7.17,0-12.7-5.25-12.7-13.63c0-8.86,5.8-14.06,13.13-14.06
				C100.78,78.59,105.92,84.11,105.92,92.21z M84.91,92.49c0,5.8,3.34,10.18,8.04,10.18c4.6,0,8.04-4.32,8.04-10.29
				c0-4.49-2.24-10.18-7.93-10.18C87.37,82.2,84.91,87.45,84.91,92.49z"/>
		</g>
	</g>
</g>
</svg>
