<?xml version="1.0" encoding="utf-8"?>
<!-- Generator: Adobe Illustrator 22.1.0, SVG Export Plug-In . SVG Version: 6.00 Build 0)  -->
<svg version="1.1" id="Слой_1" xmlns="http://www.w3.org/2000/svg" xmlns:xlink="http://www.w3.org/1999/xlink" x="0px" y="0px"
	 viewBox="0 0 837 599.5" style="enable-background:new 0 0 837 599.5;" xml:space="preserve">
<style type="text/css">
	.st0{fill:#B9DAFC;}
	.st1{fill:#FFFFFF;}
	.st2{fill:#C4DEFD;}
	.st3{fill:#FF9B95;}
	.st4{fill:#FFD800;}
	.st5{fill:#FCC326;}
	.st6{fill:#E8B023;}
	.st7{fill:#073FA0;}
	.st8{fill:#EF8E8B;}
	.st9{fill:#F2F2F2;}
	.st10{fill:#FEC631;}
	.st11{fill:#1A1A1A;}
	.st12{fill:#333333;}
	.st13{fill:#B3B3B3;}
	.st14{fill:#80400A;}
	.st15{fill:#F05D19;}
	.st16{fill:#3A3A3A;}
	.st17{fill:#171717;}
	.st18{fill:#FEE934;}
	.st19{fill:#EDD02F;}
	.st20{fill:#A7ABAF;}
	.st21{fill:#7F8486;}
	.st22{fill:#F0CF2F;}
	.st23{fill:#FBFDFB;}
	.st24{fill:#4D4D4D;}
</style>
<rect x="71" y="529.2" class="st0" width="759.9" height="1.4"/>
<path class="st1" d="M591.6,490.6H258.8c-4.2,0-7.7-3.4-7.7-7.7v-61.4c0-4.2,3.4-7.7,7.7-7.7h332.8c4.2,0,7.7,3.4,7.7,7.7v61.4
	C599.2,487.1,595.8,490.6,591.6,490.6z"/>
<path class="st2" d="M358.5,490.6h-99.7c-4.2,0-7.7-3.4-7.7-7.7v-74.2c0-4.2,3.4-7.7,7.7-7.7h99.7c4.2,0,7.7,3.4,7.7,7.7v74.2
	C366.2,487.1,362.7,490.6,358.5,490.6z"/>
<path class="st2" d="M476.4,490.6h-99.7c-4.2,0-7.7-3.4-7.7-7.7v-74.2c0-4.2,3.4-7.7,7.7-7.7h99.7c4.2,0,7.7,3.4,7.7,7.7v74.2
	C484.1,487.1,480.7,490.6,476.4,490.6z"/>
<path class="st2" d="M594.4,490.6h-99.7c-4.2,0-7.7-3.4-7.7-7.7v-74.2c0-4.2,3.4-7.7,7.7-7.7h99.7c4.2,0,7.7,3.4,7.7,7.7v74.2
	C602.1,487.1,598.6,490.6,594.4,490.6z"/>
<rect x="273.8" y="476.7" class="st1" width="306.9" height="2.1"/>
<rect x="228.3" y="478.9" class="st2" width="396.2" height="50.1"/>
<rect x="228.3" y="452.2" class="st0" width="51.2" height="76.7"/>
<rect x="573.7" y="452.2" class="st0" width="51.2" height="76.7"/>
<path class="st2" d="M807.1,284.9H689.8V167.7h117.2V284.9z M693.4,281.3h110.1V171.2H693.4V281.3z"/>
<path class="st2" d="M807.1,398.6H689.8V281.3h117.2V398.6z M693.4,395h110.1V284.9H693.4V395z"/>
<path class="st2" d="M807.1,513.7H689.8V396.4h117.2V513.7z M693.4,510.1h110.1V400H693.4V510.1z"/>
<rect x="704.4" y="514.7" class="st2" width="12.8" height="12.8"/>
<rect x="779.7" y="514.7" class="st2" width="12.8" height="12.8"/>
<path class="st0" d="M698.7,458.3V508h59.7v-49.7H698.7z M746.3,468.3h-35.5c-2.7,0-5-2.2-5-5h45.5
	C751.3,466,749.1,468.3,746.3,468.3z"/>
<path class="st2" d="M698.7,406.5v49.7h59.7v-49.7H698.7z M746.3,416.5h-35.5c-2.7,0-5-2.2-5-5h45.5
	C751.3,414.2,749.1,416.5,746.3,416.5z"/>
<rect x="698.7" y="315.8" class="st0" width="12.8" height="76.7"/>
<rect x="711.5" y="315.8" class="st2" width="12.8" height="76.7"/>
<rect x="742.8" y="315.8" class="st2" width="12.8" height="76.7"/>
<rect x="769.8" y="315.8" transform="matrix(0.9366 -0.3504 0.3504 0.9366 -74.8867 294.3917)" class="st2" width="12.8" height="76.7"/>
<rect x="724.3" y="304.4" class="st0" width="8.5" height="88.1"/>
<rect x="732.8" y="311.5" class="st0" width="9.9" height="81"/>
<rect x="771.4" y="418.1" transform="matrix(0.9592 0.2826 -0.2826 0.9592 162.2013 -200.3354)" class="st0" width="8.5" height="88.1"/>
<rect x="778.5" y="427.7" transform="matrix(0.9592 0.2826 -0.2826 0.9592 164.2219 -202.3101)" class="st2" width="9.9" height="81"/>
<path class="st0" d="M777.1,185.1h-31.8c-1.7,1.8-27.4,30-17.5,61.2c3.9,12.3,15.7,32.6,33.4,32.6s29.5-20.3,33.4-32.6
	C804.5,215,778.9,186.9,777.1,185.1z"/>
<path class="st2" d="M735.7,219.2"/>
<path class="st0" d="M730,265C730,265,730,265,730,265c-0.2,0-0.4-0.2-0.4-0.4c0.5-13.4-2.2-26.8-7.8-38.9
	c-4.9-10.5-11.8-19.8-20.5-27.6c-0.1-0.1-0.2-0.4,0-0.5c0.1-0.1,0.4-0.2,0.5,0c8.8,7.8,15.8,17.2,20.7,27.8
	c5.6,12.2,8.4,25.7,7.8,39.2C730.3,264.8,730.2,265,730,265z"/>
<path class="st0" d="M706.5,192.7c0.5-3.5-2.5-6.9-2.5-6.9s-3.9,2.3-4.5,5.8c-0.5,3.5,2.5,6.9,2.5,6.9S705.9,196.2,706.5,192.7z"/>
<path class="st0" d="M713.6,199.8c0.5-3.5-2.5-6.9-2.5-6.9s-3.9,2.3-4.5,5.8c-0.5,3.5,2.5,6.9,2.5,6.9S713.1,203.3,713.6,199.8z"/>
<path class="st0" d="M726.4,218.3c0.5-3.5-2.5-6.9-2.5-6.9s-3.9,2.3-4.5,5.8s2.5,6.9,2.5,6.9S725.8,221.8,726.4,218.3z"/>
<path class="st0" d="M720.7,209.8c0.5-3.5-2.5-6.9-2.5-6.9s-3.9,2.3-4.5,5.8c-0.5,3.5,2.5,6.9,2.5,6.9S720.2,213.2,720.7,209.8z"/>
<path class="st0" d="M695.7,201.2c-3.5-0.4-5.9-4.3-5.9-4.3s3.3-3.2,6.8-2.8c3.5,0.4,5.9,4.3,5.9,4.3S699.2,201.6,695.7,201.2z"/>
<path class="st0" d="M702.1,208.5c-3.5-0.4-5.9-4.3-5.9-4.3s3.3-3.2,6.8-2.8c3.5,0.4,5.9,4.3,5.9,4.3S705.6,208.9,702.1,208.5z"/>
<path class="st0" d="M709.8,218c-3.5-0.4-5.9-4.3-5.9-4.3s3.3-3.2,6.8-2.8c3.5,0.4,5.9,4.3,5.9,4.3S713.3,218.4,709.8,218z"/>
<path class="st2" d="M733.2,226.3h-17.8c-1,1-15.3,16.8-9.8,34.3c2.2,6.9,8.8,18.3,18.7,18.3c9.9,0,16.5-11.4,18.7-18.3
	C748.5,243.1,734.2,227.3,733.2,226.3z"/>
<path class="st0" d="M715.1,227.2c-3.5-0.4-5.9-4.3-5.9-4.3s3.3-3.2,6.8-2.8c3.5,0.4,5.9,4.3,5.9,4.3S718.6,227.6,715.1,227.2z"/>
<g>
	<rect x="531" y="169.4" class="st1" width="99.5" height="99.5"/>
	<path class="st0" d="M632.3,270.7h-103v-103h103V270.7z M532.8,267.1h95.9v-95.9h-95.9V267.1z"/>
</g>
<rect x="542.4" y="180.8" class="st0" width="76.7" height="76.7"/>
<g>
	<rect x="406" y="169.4" class="st1" width="99.5" height="99.5"/>
	<path class="st0" d="M507.2,270.7h-103v-103h103V270.7z M407.7,267.1h95.9v-95.9h-95.9V267.1z"/>
</g>
<rect x="417.3" y="180.8" class="st0" width="76.7" height="76.7"/>
<path class="st0" d="M128.5,527.5c-19.2,0-38.4,0-57.6,0c-4.3-25.6-8.5-51.2-12.8-76.7h83.1C137,476.4,132.8,501.9,128.5,527.5z"/>
<path class="st0" d="M63.4,350.8c-2.6-2.9-5.6-5.4-8.8-7.5l5.3,14.7c0.5,1.4-0.2,3-1.6,3.5l-2.6,0.9c-1.4,0.5-3-0.2-3.5-1.6
	l-8.3-23.2c-4.3-1.8-8.6-3.1-12.7-4l3.2,8.9c0.5,1.4-0.2,3-1.6,3.5c-1.4,0.5-3-0.2-3.5-1.6l-4.3-12c-11.3-1.9-20-1.4-20-1.4
	c1.2,5.2,3.3,12.4,6.9,20.5l14.3,3.1c1.5,0.3,2.4,1.8,2.1,3.2c-0.3,1.5-1.8,2.4-3.2,2.1l-10.1-2.2c2.9,5.6,6.6,11.4,11.2,17.2
	c3.3,4.2,6.8,7.9,10.3,11.2L48,375.7c1.1-1,2.8-0.9,3.8,0.2l1.8,2c1,1.1,0.9,2.8-0.2,3.8l-10.9,9.8c14,11.4,27.7,17,34.9,19.4
	C77.4,411,83.4,372.9,63.4,350.8z"/>
<path class="st0" d="M109,348.9c-1.6,1.4-4,1.2-5.3-0.3c-1.4-1.6-1.2-4,0.3-5.3l24.9-21.9c0.3-2,0.6-4,0.6-6.1
	c0.2-4.3-0.3-8.5-1.2-12.5L116.6,316c-2.6,2.9-7.1,3.2-10,0.6c-2.9-2.6-3.2-7.1-0.6-10l16.8-19.2C114.4,270.6,101,259,101,259
	s-8.9,6.6-17.4,17.4l11,11c2.8,2.8,2.8,7.3,0,10v0c-2.8,2.8-7.3,2.8-10,0l-9-9c-2.6,4.8-4.8,10.1-6.1,15.7l23.6,26.7
	c1.7,1.9,1.5,5-0.4,6.7v0c-1.9,1.7-5,1.5-6.7-0.4l-17.6-19.9c1.6,28.5,28.4,51.9,28.4,51.9s18.4-13.8,27.6-33.8L109,348.9z"/>
<path class="st0" d="M93.7,470.8c-1.1-15.5-4.1-30.7-9.2-45.2c-3.4-9.7-7.6-19.2-12.7-28.2l1.9-1c5.1,9.1,9.5,18.7,12.9,28.6
	c5.1,14.7,8.2,30.1,9.3,45.7L93.7,470.8z"/>
<path class="st0" d="M95.8,456.7l-2.1-0.4c3-17.3,4.7-34.9,5-52.4c0.3-16.3-0.7-32.7-2.8-48.9l2.1-0.3c2.1,16.3,3.1,32.8,2.9,49.2
	C100.5,421.5,98.8,439.3,95.8,456.7z"/>
<ellipse class="st0" cx="425.9" cy="553.8" rx="223.1" ry="13.5"/>
<path class="st0" d="M447.2,129.6c0-38.5,31.2-69.6,69.6-69.6s69.6,31.2,69.6,69.6"/>
<circle class="st0" cx="517.1" cy="128.9" r="14"/>
<path class="st0" d="M512.2,39.6L495,55.8c-4.4,4.1-1.5,11.5,4.6,11.5h34.3c6,0,9-7.4,4.6-11.5l-17.1-16.2
	C518.8,37.2,514.8,37.2,512.2,39.6z"/>
<rect x="515.8" y="6" class="st0" width="2.1" height="50.7"/>
<g>
	<rect x="172.3" y="101.2" class="st2" width="171.2" height="225.3"/>
	<path class="st1" d="M346.8,329.8H168.9v-232h177.9V329.8z M175.6,323.1h164.6V104.5H175.6V323.1z"/>
</g>
<rect x="172.3" y="111.5" class="st1" width="171.2" height="3.3"/>
<rect x="172.3" y="126.5" class="st1" width="171.2" height="3.3"/>
<rect x="172.3" y="141.6" class="st1" width="171.2" height="3.3"/>
<rect x="172.3" y="156.6" class="st1" width="171.2" height="3.3"/>
<rect x="172.3" y="171.6" class="st1" width="171.2" height="3.3"/>
<rect x="172.3" y="186.6" class="st1" width="171.2" height="3.3"/>
<rect x="197.6" y="98.2" class="st1" width="3.3" height="123.2"/>
<rect x="175.3" y="245" class="st1" width="168.2" height="6.7"/>
<rect x="169.2" y="335.5" class="st2" width="177.2" height="12"/>
<polygon class="st0" points="192.6,504.7 161.5,504.7 161.5,502.6 190.5,502.6 190.5,487.2 143.3,487.2 143.3,485.1 192.6,485.1 "/>
<polygon class="st0" points="211.6,504.7 190.5,504.7 190.5,485.1 226.6,485.1 226.6,487.2 192.6,487.2 192.6,502.6 211.6,502.6 "/>
<polygon class="st0" points="177.6,522.2 151.5,522.2 151.5,520.1 175.5,520.1 175.5,504.7 141.5,504.7 141.5,502.6 177.6,502.6 "/>
<polygon class="st0" points="204.1,522.2 175.5,522.2 175.5,502.6 219.1,502.6 219.1,504.7 177.6,504.7 177.6,520.1 204.1,520.1 "/>
<polygon class="st0" points="399.8,140.7 368.7,140.7 368.7,138.6 397.7,138.6 397.7,123.2 350.5,123.2 350.5,121.1 399.8,121.1 "/>
<polygon class="st0" points="418.8,140.7 397.7,140.7 397.7,121.1 433.8,121.1 433.8,123.2 399.8,123.2 399.8,138.6 418.8,138.6 "/>
<polygon class="st0" points="384.8,158.3 358.7,158.3 358.7,156.1 382.7,156.1 382.7,140.7 348.7,140.7 348.7,138.6 384.8,138.6 "/>
<polygon class="st0" points="411.3,158.3 382.7,158.3 382.7,138.6 426.3,138.6 426.3,140.7 384.8,140.7 384.8,156.1 411.3,156.1 "/>
<polygon class="st0" points="128,232.3 96.9,232.3 96.9,230.2 125.9,230.2 125.9,214.8 78.6,214.8 78.6,212.7 128,212.7 "/>
<polygon class="st0" points="147,232.3 125.9,232.3 125.9,212.7 162,212.7 162,214.8 128,214.8 128,230.2 147,230.2 "/>
<polygon class="st0" points="113,249.9 86.9,249.9 86.9,247.7 110.9,247.7 110.9,232.3 76.9,232.3 76.9,230.2 113,230.2 "/>
<polygon class="st0" points="139.5,249.9 110.9,249.9 110.9,230.2 154.5,230.2 154.5,232.3 113,232.3 113,247.7 139.5,247.7 "/>
<polygon class="st0" points="794.7,136.8 763.6,136.8 763.6,134.6 792.6,134.6 792.6,119.2 745.4,119.2 745.4,117.1 794.7,117.1 "/>
<polygon class="st0" points="813.7,136.8 792.6,136.8 792.6,117.1 828.7,117.1 828.7,119.2 794.7,119.2 794.7,134.6 813.7,134.6 "/>
<polygon class="st0" points="779.7,154.3 753.6,154.3 753.6,152.2 777.6,152.2 777.6,136.8 743.6,136.8 743.6,134.6 779.7,134.6 "/>
<polygon class="st0" points="806.2,154.3 777.6,154.3 777.6,134.6 821.2,134.6 821.2,136.8 779.7,136.8 779.7,152.2 806.2,152.2 "/>
<path class="st3" d="M386.6,568.4c1.2,2.1,4,2.6,5.4,2.9c3.2,0.7,7.4-0.1,9.6-2.7c1.2-1.4,1.2-2.6,1.8-9.9
	c0.7-9.5,1.1-12.4,1.3-13.6c0.4-2.8,1-5.5,2.2-9.6c2.8-10.1,5.3-18.7,8.1-24.1c6.7-13,8.8-24.9,10.5-34c1.5-8.2,0.8-9,2-16.2
	c2.7-17.5,8.5-24,13.8-38.4c6.9-18.7,7-34,7-57.4c0-16.5,0.1-29.2-5-30.9c-6.4-2.2-18.7,11.3-24.3,25.4c-2.3,5.8-3.1,10.4-3.4,34
	c-0.6,34.8,0.8,40.6-2.3,54.6c-2.4,10.7-6.1,21.8-6.1,21.8c-4.7,14-5.8,12.4-7.5,19.7c-2.5,10.7-0.6,15.4-2.3,33.3
	c-0.4,4.4-1,9.6-1,9.6c-0.7,6.6-1.1,9.8-1.3,11.1C392.6,558,383.8,563.7,386.6,568.4z"/>
<path class="st4" d="M468.3,528.1c-0.4-1.3-1.5-4.1-4.3-6.4c-4.7-3.8-10.3-3-11.2-2.8c0.7-0.4,5.2-2.8,10.3-0.9
	c6.4,2.4,7.8,9.2,7.8,9.6C470,527.7,469.1,527.9,468.3,528.1z"/>
<path class="st3" d="M448.4,538.6c1.3,1.8,3.6,0.8,9.6,2.3c7.6,1.9,8.2,4.4,14.4,6c7.6,2,16.5,0.8,17.2-1.8c0.2-0.8-0.3-1.9-9.6-8.3
	c-11.1-7.6-12.4-7.3-13.7-9.6c-2.8-5,1.5-9.4,7.5-26c4.3-11.8,2.8-11.5,8.8-29.1c4-11.6,4.5-11.4,6-16.9c2.9-11,2.8-18.8,3.1-30.8
	c0.7-36.6,2.9-34.7,1.2-47.8c-1-7.4-4.2-15.5-10.7-31.8c-1.1-2.7-2.6-6.4-6.1-7.9c-5.1-2.1-13,1-16.7,6c-7.3,9.8,5.8,21.8,9.9,53.8
	c2.3,18.1,0.4,31.9-0.1,35.4c-2,13.5-4.2,13.5-7.3,28.2c-6.9,32.4,2.5,39.1-6.7,58.6C451.3,526.9,445.4,534.4,448.4,538.6z"/>
<g>
	<path class="st4" d="M476.2,528.6c0,0,2.7,4,7,6.8c2.1,1.4,5.6,3.6,9.2,3.8c0.7,0,2.3,0,3.8,1.1c0,0,1,0.7,1.7,1.8
		c1.3,2.2,0.8,5.8-1.2,9.3c-1.3,0.4-13,4.2-22,3.6c-3-0.2-5.2-0.9-9.7-2.4c-0.7-0.2-1.9-0.7-2.8-1.8c-0.7-0.9-0.5-1.3-1.1-2.1
		c-1.4-2.1-5-2.9-7.7-2.4c-1.2,0.2-1.5,0.5-2.7,0.5c-1,0-1.9-0.4-3.5-1.1c-1.9-0.9-2.8-1.3-3.6-2.1c-0.7-0.8-1-1.6-1.5-3
		c-1-2.8-1.6-4.7-0.8-6.4c0.8-1.7,2.6-2.5,3.4-2.8c4-1.6,6.1,1.1,11.1,0.6c1.3-0.1,3.5-1.1,8-3.1c5.9-2.6,8.2-4.2,10.2-3.1
		C475.1,526.3,475.1,526.9,476.2,528.6z"/>
	<path class="st5" d="M453.5,538.7c1.6,1.1,4,2.7,6.8,4.9c3,2.2,3,2.4,4.1,3.2c4.8,3.2,9.8,3.7,11.9,3.9c2.2,0.2,5.1-0.2,10.9-1
		c9.2-1.3,10.8-2.3,11.4-3.7c0.6-1.4,0.2-3.4-0.6-3.7c-0.3-0.1-0.7,0.2-1.6,0.7c-0.9,0.5-1.9,0.9-2.9,1.4c-2.6,1.4-8.6,1.7-8.9,1.8
		c-3.6,0.2-7.4,0.4-12.2-0.5c-8.3-1.6-14.3-5.5-17.8-8.3C454.3,537.7,453.9,538.2,453.5,538.7z"/>
	<path class="st6" d="M464.4,546.7c0.5,0.3,1.1,0.8,2,1.2c1,0.5,1.4,0.7,1.7,0.5c0.7-0.5,0.3-3.6-1.4-4.1c-0.6-0.2-1.6,0-2.1,0.7
		C464.2,545.8,464.4,546.6,464.4,546.7z"/>
	<path class="st6" d="M472.7,549.6c0.1,0.1,0.2,0.3,1.5,0.6c1.5,0.3,2.2,0.5,2.5,0.2c0.7-0.5,0.7-2-0.1-2.8c-0.8-0.8-2-0.4-2.1-0.4
		C473.2,547.5,472.4,548.9,472.7,549.6z"/>
	<path class="st6" d="M482.7,549.8c0.3,0.4,1.2,0.3,3,0.2c1.2-0.1,1.4-0.2,1.5-0.4c0.5-0.6,0.1-2-0.9-2.6c-0.9-0.6-2.1-0.2-2.8,0.4
		C482.8,548,482.3,549.2,482.7,549.8z"/>
	<path class="st6" d="M492.6,548.4c0.5,0.5,1.5,0.2,2.1-0.1c0.2-0.1,0.7-0.4,1.1-1c0.3-0.5,0.6-1.4,0-2.1c-0.5-0.5-1.3-0.5-1.8-0.4
		C492.5,545.4,491.9,547.7,492.6,548.4z"/>
	<path class="st5" d="M452.9,536.3c1.2,1.3,5.2-1.7,13.5-4.5c5.7-1.9,8.5-2.9,8.8-2.9c0.2,0,0.8,0,1-0.3c0.2-0.4-0.5-1.2-1.3-1.9
		c-3.3,0.8-6,1.6-7.7,2.2c-2.7,0.9-4.1,1.6-9.8,3.7c-2,0.8-3.7,1.4-4.7,1.8C452.4,535.5,452.7,536,452.9,536.3z"/>
	<path class="st5" d="M453.5,538.7c-1.1,0.6-2.5,0.5-3.3-0.2c-0.9-0.8-0.6-2-0.9-3.9c-0.4-3.4-1.8-3.5-2.3-6.2
		c-0.5-2.6,0.1-6.5,3-8.7c2.2-1.7,4.8-1.6,5.8-1.5c-0.7,0.1-2.3,0.3-3.5,1.7c-0.7,0.9-0.9,1.8-1.1,2.7c-0.1,0.8-0.2,1.7,0.9,7.1
		c0.4,2,0.5,2.4,0.9,3.1c0.8,1.4,1.6,1.5,1.9,2.6C455,536.5,454.7,538,453.5,538.7z"/>
</g>
<path class="st7" d="M453.1,309.3c-7.3,3.4-17.7,9.5-25.7,20.6c-4.5,6.2-9.3,15.5-12.6,45.1c-4.2,39,1.9,44.1-4.1,69.4
	c-4.2,17.7-7.8,18.1-13,38.1c-5.7,22-6.3,41-5.8,53.9c5.7,1.9,11.4,3.7,17.1,5.6c4.4-12.7,8.1-23,10.7-30.1
	c9.7-26.5,11.9-30.6,14.3-42.2c1.2-5.7,1.9-10.7,4.4-20.5c2.4-9.7,4.7-16.7,5.6-19.3c10.4-32.4,13.6-60.2,17.5-59.9
	c3,0.2,4.1,16.1,4.8,27.2c0.5,7.2,1.2,17.6-0.6,30.8c-1.7,12.5-4.4,19.2-6.9,28.1c-3.2,11.4-6.4,28.1-5.7,50.3
	c6.4,2.4,12.9,4.9,19.3,7.3c3.3-7.2,7.7-17.4,12.1-29.8c5-14.1,10.4-29.6,13.1-50.4c2.3-17.3,1.8-30.7,1.6-35.4
	c-1-20.1-5-36.5-8.6-47.9c-10.4-11.4-20.8-22.7-31.3-34.1C457.3,313.9,455.2,311.6,453.1,309.3z"/>
<path class="st3" d="M537.4,397c-1-0.4-2.5,2.9-4.4,2.8c-1-0.1-1.6-1.2-2.5-2.3c-2.2-2.8-4-2.7-6.4-4.7c-6.3-5.3-5.4-15.9-5.4-16.4
	c0.1-1.4,0.3-1.1,0.4-2.6c0.8-6.5-1.7-10.1-5.1-20.6c-2.9-8.8-2.8-11.4-2-13.7c0.1-0.4,1-2,2.8-5.3c4.2-7.7,4.8-8.7,5.3-9.4
	c1.2-1.8,3.1-4.3,5.8-7c0.2-0.3,3.8-6.9,10.4-6.9c0.8,0,4.9,0,6.3,2.5c1.4,2.5-0.8,6.1-6.6,14.8c-4.2,6.4-7.7,11.7-10.1,15.2
	c2.6,9,2.7,15.3,2.2,19.6c0,0-1,8.2,2,13c1.3,2,1.6,1.3,4.1,4.2c0,0,5.3,6.2,6.6,15.9c0.1,0.7,0.3,2.2-0.6,2.9
	c-0.4,0.3-1.1,0.5-1.6,0.3C537.7,398.9,538.1,397.3,537.4,397z"/>
<path class="st8" d="M556,275.3c-4.7,2.9-9.7,6.6-8.9,8.9c0.5,1.6,3.5,1.5,3.7,2.6c0.3,2.3-11.3,8.8-17.4,5.1
	c-8.6-5.1-2.6-27.7-1-27.8c0.6,0,0.3,3,2.4,4.1c2.5,1.4,6.5-1.1,10.6-3.7c2.7-1.7,4.7-3.3,6-4.4C552.9,265.3,554.4,270.3,556,275.3z
	"/>
<path class="st3" d="M556.8,249.7c4.2-0.8,8.9-5.3,14-6.6c0.3-0.1,6.3-1.4,11,1.9c5.3,3.8,5.3,11.3,5.3,13.3
	c0,11.7-9.8,19.6-13.9,22.8c-4.4,3.5-8,6.4-11.8,5.4c-5.5-1.5-9-10.6-9.6-16.5c-0.3-2.7,0-4.7-1.2-8c-1.2-3.6-2.6-4.3-2.6-7
	c0-3.5,2.2-6.9,3.7-6.7c0.6,0.1,0.6,0.6,1.6,1.2C554.6,250.2,556.1,249.9,556.8,249.7z"/>
<path class="st9" d="M453.1,309.3c7.9-2.2,19.6-6.5,31.3-15.5c2.5-1.9,5.9-5.1,12.7-11.4c17.9-16.6,26.3-25.8,31.3-23.5
	c1.2,0.6,2.9,2.1,3.9,4.2c0.5,1.1,1.1,2.8,0.9,5.9c-0.4,5.8-2.6,6.8-2.6,10.1c-0.1,6.6,8.9,13.4,12.7,11.8c2.1-0.9,2.4-4.3,5.3-4.8
	c1.3-0.2,2.4,0.3,2.6,0.4c2,1.2,1.5,8.8-9.6,37.4c-1.5-1.3-10.4-8.6-22.5-7c-11.2,1.5-20.9,10.1-23.4,20.9c-1.4,6.4,0,11.8,1,14.6
	C482.1,338.1,467.6,323.7,453.1,309.3z"/>
<path class="st10" d="M533.2,269c-3.9,5.3-7.9,10.5-11.8,15.8c1.1,1.9,2.3,3.9,3.7,5.9c3.4,4.8,7.1,8.6,10.3,11.4
	c2.1-1.8,4.4-4,6.8-6.8c2.8-3.3,4.8-6.5,6.4-9.2c0.3-0.1,0.7-0.2,1.3-0.1c0.7,0.1,1.1,0.4,1.4,0.5c-1.1,2.2-2.8,5.3-5,9
	c-1,1.6-5.1,8.4-8.1,12.3c-5.6,7.1-9.9,6.8-29.1,18.6c-9.4,5.8-11.1,7.5-12.1,10.1c-2.2,5.9,1.4,10.7,4.2,19.7
	c1.5,4.7,2,12.1,3.1,26.5c1.8,24.2,2.4,49,2.6,60c-12,3.3-21.7,3.6-28.5,3.3c-16.8-0.8-17.1-5.8-35.1-6.4c-8.5-0.2-15,0.7-19.9-3.9
	c-3-2.8-3.3-5.7-7.5-9.2c-3.9-3.4-8.3-4.8-11.4-5.5c8.5-15.7,23-42,39.9-70.1c4.4-7.3,10.4-17.2,20.8-28.1
	c9.2-9.6,16.9-14.9,23.9-20.2c11.1-8.3,26.3-21,43.4-39.7c0.3,0.6,0.5,1.4,0.7,2.3C533.3,266.9,533.3,268.1,533.2,269z"/>
<path class="st11" d="M428.9,294c3.9,0.4,7.7,0.9,11.6,1.3c-0.1,4.3-0.3,8.7-0.4,13c-4-1.2-8-2.4-12.1-3.7c-0.4-0.4-2.1-2-2.2-4.7
	C425.6,296.3,428.6,294.2,428.9,294z"/>
<ellipse class="st12" cx="440.5" cy="302" rx="5.8" ry="6.7"/>
<path class="st13" d="M634.9,501.2c-64.9-65-129.7-130-194.6-194.9c-3-3.2-3-6.8-1.6-8c1.5-1.3,4.5,0.1,4.7,0.1
	c66.2,66.2,132.4,132.4,198.6,198.7C639.5,498.4,637.2,499.8,634.9,501.2z"/>
<path class="st3" d="M467.3,302.8c2.2,10.6,4.3,19.7,6,26.7c0,0,9.8,13.3,7.6,15.3c-0.6,0.5-2-0.3-2.9,0.6c-1.2,1.1-0.6,3.9,0.3,5.6
	c1.7,3.3,6.1,6,10.1,5c5.1-1.3,6.8-7.8,6.7-11.7c-0.1-6.3-4.9-12.2-12.3-15c-0.3-5.9-0.5-11.8-0.7-17.8c-0.4-11.2-0.6-22.2-0.6-32.9
	c4.3,0,10.3-0.1,17.4-0.9c12.8-1.4,14.9-3.3,15.9-4.8c2.4-3.6,2.2-10-1.2-13.1c-4.5-4.3-11.1,0.6-35.2,4.2c-8.6,1.3-10.1,1-12.1,2.9
	C462.2,270.7,462.2,277.6,467.3,302.8z"/>
<path class="st9" d="M500,259.2c3,7,5.1,14.2,2.1,17c-1.7,1.6-4.4,1.4-4.4,1.5c0,0.2,7.3,0.2,15.6-2.6c3.3-1.1,8.5-3.2,13.1-8.1
	c2.8-3,4.3-4.6,3.9-6.3c-1.1-4.7-15.9-7.2-27.7-2.7C501.5,258.5,500.6,258.9,500,259.2z"/>
<path class="st14" d="M555.1,251.2c1.8,0.2,2.6,1.7,3.7,2.8c4.8,4.5,11.9-0.7,22.6,3c2.5,0.9,4.5,1.9,5.4,2.3
	c7.1,3.7,8.8,7.4,12.6,7c2.8-0.3,4.8-2.6,4.7-2.9c-0.1-0.2-1.8,0.9-3.7,0.3c-1.4-0.4-2.7-1.8-2.5-2.6c0.4-1.5,5.2-0.1,8-2.8
	c1.4-1.3,1.8-3.1,1.9-4.2c-2.7,0.7-7.3,1.4-12-0.4c-10.9-4.2-10-17-18.6-20.6c-12.4-5.3-34.7,13-32.7,18.3c0.6,1.6,3.2,2,5.6,2.2
	C551.4,252.3,553.2,250.9,555.1,251.2z"/>
<path class="st5" d="M380.9,572.8c2.2,2.8,7.5,8.9,15,10.4c3.5,0.7,5.2-0.1,5.9-0.5c3.8-2.1,4-7.5,4.3-7.4c0.4,0.1,1.1,11.1-5,14.3
	c-2.9,1.5-6.1,0.6-10.4-0.5c-4.2-1.2-7.4-2.1-9.4-5.1C378.3,579.3,380.5,573.6,380.9,572.8z"/>
<path class="st4" d="M380.4,575c-0.1-4.4,2.6-5.1,4.4-11.8c1.1-4,0.9-6.2,2.6-7.1c1-0.5,1.7-0.1,4.7,0.5c0.7,0.1,2.8,0.3,7,0.8
	c6.4,0.6,7.5,0.4,8.2,0.8c0,0,0.2,0.1,0.3,0.2c1.6,1.2,0.5,5.8-0.3,9.4c-1.4,7-0.4,6.4-1.5,10c-1.2,3.7-2.3,7.1-5.4,9
	c-5.3,3.3-14.4,0.6-18.1-5.2C381.9,580.7,380.5,578.2,380.4,575z"/>
<path class="st6" d="M384.2,582.9c0.8-0.9,3.3-0.4,3.8,1c0.2,0.6,0,1.4-0.5,1.8c-0.9,0.7-2.4,0.3-3.1-0.7
	C383.9,584.4,383.8,583.4,384.2,582.9z"/>
<path class="st6" d="M382,577.4c0.7,0,1.5,0.3,1.9,1c0.7,1.2-0.6,3.2-1.7,3.2c-1.2,0.1-2.6-2.3-1.9-3.4
	C380.7,577.4,381.9,577.4,382,577.4z"/>
<path class="st6" d="M390.9,585.6c-0.4,0.3-0.3,1.1-0.2,1.5c0.2,0.5,0.7,1.4,1.5,1.4c0.8,0,1.4-0.9,1.3-1.5
	C393.4,585.8,391.5,585.1,390.9,585.6z"/>
<path class="st5" d="M387.7,558.2c-0.1,0.4,1.6,1.5,7.4,2.7c0.9,0.2,11.3,2.2,12.1-0.2c0.2-0.5-0.1-1,0.4-1.8
	c0.4-0.8,1.1-1.1,1.5-1.5c1.3-1.3,0.4-4.2-0.1-5.8c-0.5-1.6-1.6-4.3-4.1-7.1c0.1-0.7,0.2-1.3,0.3-2c4.3,4.8,6.4,9.6,6.4,12.1
	c0,0.6-0.1,0.7-0.4,3.6c-0.1,1.3-0.2,2.1-0.8,2.9c-0.3,0.3-0.5,0.5-1.2,0.9c-0.6,0.3-2.1,1.1-3.4,1.5c-5.1,1.6-9.7,0.3-9.7,0.3
	c-4.2-1.6-6.2-2.6-7.1-3.1c-0.8-0.5-1.4-0.9-2.4-1.2c-0.7-0.2-1.2-0.2-1.8-0.6c0,0-0.6-0.5-0.8-1.5c-0.5-2.4,3.6-6.8,7.6-11
	c0.7-0.7,2-2.1,3.8-4c-0.1,0.6-0.2,1.2-0.3,1.8c-6.6,8.1-8.1,10.8-7.6,11.3c0.1,0.1,0.6,0.3,0.9,0.9c0.1,0.1,0.3,0.6,0.1,1.1
	S387.8,558,387.7,558.2z"/>
<path class="st15" d="M584.3,229.3c-14,5.8-28,11.5-41.9,17.3c0.9,2.3,1.8,4.5,2.6,6.8c15.1-4,30.2-8,45.3-11.9
	C588.2,237.4,586.2,233.3,584.3,229.3z"/>
<path class="st15" d="M573.7,226.3c2.7,1.6,5.3,3.3,8,4.9c-12.3,4.8-24.6,9.6-37,14.4c-0.3-0.7-0.7-1.4-1-2.1
	c1.2-2.4,4.6-8.8,12.3-13.2C563.7,225.8,571.1,226.1,573.7,226.3z"/>
<path class="st15" d="M543.8,253.5c0.4,1.2,0.8,2.3,1.2,3.5c15.8-2.3,31.6-4.5,47.3-6.8c-0.5-3.3-1.1-6.5-1.6-9.8
	C575,244.7,559.4,249.1,543.8,253.5z"/>
<path class="st15" d="M591.9,244.2c1.1-0.2,0-5.5,3.5-13c1.6-3.4,3.5-6.1,5-7.8c-1,0-6.9-0.1-10.4,3.8
	C584,233.6,590.3,244.4,591.9,244.2z"/>
<path class="st15" d="M591.5,244.6c4.2-0.9,9-2.4,13.9-4.5c1.2-0.5,2.4-1.1,3.5-1.6c-0.1,0.7-0.7,4.7-4.4,7
	C600.8,247.9,595.4,247.7,591.5,244.6z"/>
<ellipse transform="matrix(0.9482 -0.3176 0.3176 0.9482 -47.5747 200.1261)" class="st15" cx="590" cy="246" rx="3.6" ry="3.3"/>
<path class="st6" d="M401,586.8c0.1,0.8-0.7,1.4-0.8,1.5c-0.5,0.4-1,0.5-1.5,0.5c-0.5,0.1-1,0.1-1.5-0.1c-0.5-0.3-1-0.9-1-1.6
	c0.1-1.1,1.8-2,3.1-1.7C400,585.6,400.9,586,401,586.8z"/>
<path class="st6" d="M412.8,616.2c-0.1,0.6-0.5,1.3-1.2,1.5c-0.4,0.1-1.1,0.1-1.3-0.2c-0.3-0.5,0.5-1.4,1-1.9
	c0.3-0.2,0.8-0.6,1.1-0.4C412.9,615.3,412.8,616.2,412.8,616.2z"/>
<path class="st16" d="M636.8,535.2c17-5.8,34-11.7,51-17.5c3.8,0.2,9.4,1.1,15.5,4c3.5,1.7,6.2,3.6,8.3,5.3
	c-17.3,6.6-34.6,13.3-51.9,19.9C652,543,644.4,539.1,636.8,535.2z"/>
<path class="st17" d="M661.4,554.1c17.1-7.1,34.3-14.1,51.4-21.2c0.1-0.9,0.2-2.3-0.3-3.9c-0.3-0.9-0.6-1.5-0.9-2.1
	c-17.3,6.6-34.6,13.3-51.9,19.9C660.2,549.3,660.8,551.7,661.4,554.1z"/>
<path class="st12" d="M636.8,535.2c0.9,0,17.3,0.4,22.9,11.7c0.8,1.6,1.6,4,1.8,7.2c-7.9-3-15.8-6-23.7-9
	C637.3,541.8,637.1,538.5,636.8,535.2z"/>
<path class="st11" d="M678.5,533.3c-2-2.5-5.2-5.9-9.6-8.9c-5.8-3.9-11.3-5.6-14.9-6.4c2.2-1.4,5.2-3,8.9-4.1c1.8-0.5,3.5-0.9,5-1.1
	c2.9,1,6.5,2.5,10.2,4.8c5.8,3.6,9.8,7.8,12.3,11C686.4,530.3,682.4,531.8,678.5,533.3z"/>
<path class="st12" d="M634.4,502.8c-0.3-0.6-2-3.5-0.9-6.6c0.2-0.4,1.4-3.8,3.7-3.7c1.9,0,3.1,2.1,3.2,2.3
	c3.4,4.1,6.7,8.3,10.1,12.4c-2.4,2.8-4.9,5.7-7.3,8.5C640.3,511.4,637.3,507.1,634.4,502.8z"/>
<path class="st11" d="M650.5,507.1c-0.9,0-2.3,0-3.6,0.8c-2.5,1.4-3.9,4.4-3.7,7.8c4.3,3.2,8.6,6.4,12.9,9.6c3-3,5.9-6.1,8.9-9.1
	C660.2,513.2,655.4,510.2,650.5,507.1z"/>
<path class="st12" d="M651.6,529.3c0.8-3.7,1.5-7.5,2.3-11.2c2.5,0,8.5,0.3,14.7,4.3c5.9,3.8,8.8,8.7,9.9,11
	c-3.2-1.9-9.4-5-17.5-5.2C657.3,528.1,654.1,528.6,651.6,529.3z"/>
<path class="st12" d="M648.6,533.9c3.9,1.6,7.7,3.2,11.6,4.8c-5.5-5.9-9-8.5-10.6-7.6C648.9,531.5,648.6,532.4,648.6,533.9z"/>
<path class="st11" d="M660.2,538.7c-1.2-1.3-2.8-3-5-4.5c-2.1-1.5-4-2.4-5.6-3.1c0.1-0.2,1.1-2.7,3.8-3.4c2.8-0.6,4.8,1.2,4.9,1.3
	c3.4,2.1,6.8,4.2,10.2,6.2C665.7,536.4,663,537.6,660.2,538.7z"/>
<path class="st18" d="M197.4,534.3c0.2-5.2,3.1-12.2,8.5-16.7c2.9-2.4,6.7-3.6,14.3-5.8c9.8-2.9,14.7-4.4,21-4.4
	c4.5,0,9.7,0.7,19.3,4.4c17.4,6.7,37.9,14.5,45.9,34.2c2.2,5.4,3.7,9.2,2.3,13.4c-5,15.4-43.1,20.1-72.2,9.9
	C220.8,563.9,196.8,550.1,197.4,534.3z"/>
<path class="st19" d="M228.7,530c-10.6-6-19.5-11.2-25.7-7.6c-9.4,5.4-9.8,29.3,1.2,42.7c16.7,20.4,58.2,13.9,62.2,2
	C270.8,554.3,232.3,532,228.7,530z"/>
<path class="st12" d="M219.6,577.6c3.7,2.7,9.5,4.2,21,7c13.5,3.3,20.2,5,26,5.3c7.9,0.3,29.7,1.2,38.6-12.6
	c1.8-2.7,4.5-8.4,3.5-17.8c-2.7,2.2-6.9,5.1-12.6,7.3c-11.8,4.5-23,2.8-31.6,0.9c-35.6-8.1-51.8-26.9-57.6-21.9
	C202.2,550,207.6,568.9,219.6,577.6z"/>
<path class="st20" d="M219.2,539.2c0.7-0.4,2.2-1.3,4.7-1.8c7.8-1.4,12.9,4,30.7,15.2c6.9,4.4,9.1,5.5,10.5,8.8
	c2.3,5.4,1,13-3.5,16.4c-3.6,2.7-8.8,1.4-19.1-1.3c-10.7-2.8-16.9-4.5-22.8-10.2c-3-2.9-7.4-7.2-7.5-13.6
	C212.1,547.6,214.6,542,219.2,539.2z"/>
<ellipse transform="matrix(0.9643 -0.2649 0.2649 0.9643 -140.2706 74.4854)" class="st21" cx="206" cy="557.3" rx="15.3" ry="25.2"/>
<ellipse transform="matrix(0.9643 -0.2649 0.2649 0.9643 -140.2388 74.1345)" class="st22" cx="204.7" cy="557" rx="12.3" ry="20.4"/>
<ellipse transform="matrix(0.3912 -0.9203 0.9203 0.3912 -321.4461 584.8135)" class="st23" cx="281.3" cy="535.4" rx="9.8" ry="14.9"/>
<path class="st24" d="M341,595.5c-0.2,0-0.5,0-0.7,0c-6.8-0.1-14.5-1.8-22.2-4.8c-7.8-3-15.1-7.3-20.5-11.9
	c-6.3-5.5-9.8-11.3-10.2-16.9c-0.7-10.8,10-19.4,17.8-25.6c1.3-1.1,2.9-2.3,4.2-3.5c-3.9,0.4-11.7,1.8-26.9,6.4
	c-2.1,0.6-4.3-0.6-4.9-2.7c-0.6-2.1,0.6-4.3,2.7-4.9c12.1-3.6,20.9-5.7,26.9-6.5c4.9-0.6,10.3-0.7,12.1,3.3c2.2,4.9-2.8,8.9-9.1,14
	c-6.5,5.2-15.3,12.3-14.9,19c0.5,7.1,11.3,16.4,25.7,22c14.3,5.6,27.1,5.7,32.7,0.4c4.2-4,5.8-12.4,4.1-22.4
	c-1.8-10.5-6.8-21.2-13.5-28.6c-9.5-10.5-21.4-13.5-31.9-16.2c-9.8-2.5-19-4.9-21.6-13.6c-2.6-8.8,3.8-14.8,11.3-21.8
	c6.9-6.5,15.5-14.5,20.4-27.4c6.2-16.5,3.1-29.2-0.5-44c-3.5-14-7.4-29.9-2.2-50.3c7.5-29.6,23.2-45.5,35.1-53.6
	c30.5-20.8,66.1-12.7,76.3-9.7c2.1,0.6,3.3,2.8,2.7,4.9c-0.6,2.1-2.8,3.3-4.9,2.7c-9.3-2.7-42-10.1-69.7,8.7
	c-15.7,10.7-26.4,27.1-31.9,49c-4.7,18.5-1.2,32.7,2.2,46.4c3.6,14.7,7.4,29.9,0.3,48.7c-5.5,14.6-15.2,23.7-22.3,30.4
	c-6.8,6.4-10.3,9.9-9.1,13.8c1.3,4.3,6.6,5.8,16,8.2c11,2.8,24.6,6.3,35.7,18.5c7.8,8.6,13.4,20.4,15.4,32.6
	c2.1,12.8-0.2,23.6-6.4,29.5C354.9,593.4,348.7,595.5,341,595.5z"/>
<path class="st24" d="M242.9,511.4c0.3,1.4-0.4,2.9-1.9,3.7c-2.2,0.6-5.2,1.1-8.7,1.1c-3.8,0-6.9-0.5-9.2-1.1
	c-0.3-0.3-0.9-0.8-1.3-1.7c-0.4-0.8-0.5-1.6-0.5-2.1"/>
<ellipse class="st12" cx="232" cy="511.4" rx="10.8" ry="1.5"/>
</svg>
