<?xml version="1.0" encoding="utf-8"?>
<!-- Generator: Adobe Illustrator 27.3.1, SVG Export Plug-In . SVG Version: 6.00 Build 0)  -->
<svg version="1.1" id="Слой_1" xmlns="http://www.w3.org/2000/svg" xmlns:xlink="http://www.w3.org/1999/xlink" x="0px" y="0px"
	 viewBox="0 0 96.29 153.7" style="enable-background:new 0 0 96.29 153.7;" xml:space="preserve">
<style type="text/css">
	.st0{fill:#FF7380;}
	.st1{fill:none;stroke:#FBC04B;stroke-linecap:round;stroke-miterlimit:10;}
	.st2{fill:none;stroke:#2AA8F4;stroke-width:2;stroke-miterlimit:10;}
	.st3{fill:none;stroke:#FFFFFF;stroke-width:3;stroke-linecap:round;stroke-miterlimit:10;}
</style>
<path class="st0" d="M20.9,57.11c6.65-2.7,15.58-5.49,26.36-6.59c20.57-2.11,37.1,2.99,46.14,6.59c-1.08,6.61-3.06,14.9-7.25,23.73
	c-8.17,17.23-20.59,28.92-29,35.59c-8.41-6.67-20.83-18.36-29-35.59C23.92,71.93,21.88,63.74,20.9,57.11z"/>
<path class="st1" d="M25.81,61.74c5.75-2.34,13.47-4.74,22.79-5.7c17.78-1.82,32.08,2.59,39.88,5.7
	c-0.93,5.71-2.65,12.88-6.27,20.51c-7.06,14.9-17.8,25-25.07,30.77c-7.27-5.77-18.01-15.87-25.07-30.77
	C28.42,74.55,26.66,67.48,25.81,61.74z"/>
<polygon class="st2" points="34.4,113.02 65.9,113.02 50.15,81.52 34.4,50.02 18.65,81.52 2.9,113.02 "/>
<path class="st3" d="M65.9,86.02c3-6,6-12,9-18"/>
</svg>
