<?xml version="1.0" encoding="utf-8"?>
<!-- Generator: Adobe Illustrator 22.1.0, SVG Export Plug-In . SVG Version: 6.00 Build 0)  -->
<svg version="1.1" id="Слой_1" xmlns="http://www.w3.org/2000/svg" xmlns:xlink="http://www.w3.org/1999/xlink" x="0px" y="0px"
	 viewBox="0 0 40 40" style="enable-background:new 0 0 40 40;" xml:space="preserve">
<style type="text/css">
	.st0{fill:#ACCBE8;}
</style>
<path class="st0" d="M17.4,32.8l-1.9,0.9c-2.1,1-4.6,0.1-5.6-1.9L1.4,14c-1-2.1-0.1-4.6,1.9-5.6l1.9-0.9c2.1-1,4.6-0.1,5.6,1.9
	l8.5,17.7C20.3,29.3,19.4,31.8,17.4,32.8z"/>
<path class="st0" d="M36.1,33.1L34.2,34c-2.1,1-4.6,0.1-5.6-1.9l-8.5-17.7c-1-2.1-0.1-4.6,1.9-5.6L24,7.8c2.1-1,4.6-0.1,5.6,1.9
	L38,27.5C39,29.6,38.2,32.1,36.1,33.1z"/>
</svg>
